<svg width="24" height="24" viewBox="0 0 24 24" fill="none" xmlns="http://www.w3.org/2000/svg">
<path d="M11.0156 0.683594H12.9836V5.11164H11.0156V0.683594Z" fill="black"/>
<path d="M2.15918 2.16016H10.0314V4.12816H2.15918V2.16016Z" fill="black"/>
<path d="M13.9678 2.16016H21.84V4.12816H13.9678V2.16016Z" fill="black"/>
<path d="M18.3955 22.8231L21.3476 19.8711H18.3955V22.8231Z" fill="black"/>
<path d="M13.9674 5.60356C13.9674 5.73393 13.9154 5.85917 13.8233 5.95146C13.731 6.04375 13.6058 6.09556 13.4754 6.09556H10.5234C10.2516 6.09556 10.0314 5.87529 10.0314 5.60356V5.11156H2.15918V23.3155H17.4114V19.3794C17.4114 19.1077 17.6316 18.8874 17.9034 18.8874H21.8394V5.11133H13.9677L13.9674 5.60356ZM11.9994 17.9036H4.61942C4.34769 17.9036 4.12742 17.6833 4.12742 17.4116C4.12742 17.1398 4.34769 16.9196 4.61942 16.9196H11.9994C12.2711 16.9196 12.4914 17.1398 12.4914 17.4116C12.4914 17.6833 12.2711 17.9036 11.9994 17.9036ZM19.3794 14.9515L4.61942 14.9517C4.34769 14.9517 4.12742 14.7314 4.12742 14.4597C4.12742 14.188 4.34769 13.9677 4.61942 13.9677H19.3794C19.6511 13.9677 19.8714 14.188 19.8714 14.4597C19.8714 14.7314 19.6511 14.9517 19.3794 14.9517V14.9515ZM19.3794 11.9995L4.61942 11.9996C4.34769 11.9996 4.12742 11.7794 4.12742 11.5076C4.12742 11.2359 4.34769 11.0156 4.61942 11.0156H19.3794C19.6511 11.0156 19.8714 11.2359 19.8714 11.5076C19.8714 11.7794 19.6511 11.9996 19.3794 11.9996V11.9995ZM19.3794 9.04742L4.61942 9.0476C4.34769 9.0476 4.12742 8.82733 4.12742 8.5556C4.12742 8.28388 4.34769 8.0636 4.61942 8.0636H19.3794C19.6511 8.0636 19.8714 8.28388 19.8714 8.5556C19.8714 8.82733 19.6511 9.0476 19.3794 9.0476V9.04742Z" fill="black"/>
</svg>
