<svg width="24" height="24" viewBox="0 0 24 24" fill="none" xmlns="http://www.w3.org/2000/svg">
<path d="M11.0156 0.684082H12.9836V5.11213H11.0156V0.684082Z" fill="#9D0053"/>
<path d="M2.15918 2.16016H10.0314V4.12816H2.15918V2.16016Z" fill="#9D0053"/>
<path d="M13.9678 2.16016H21.84V4.12816H13.9678V2.16016Z" fill="#9D0053"/>
<path d="M18.3955 22.8241L21.3476 19.8721H18.3955V22.8241Z" fill="#9D0053"/>
<path d="M13.9674 5.60405C13.9674 5.73441 13.9154 5.85966 13.8233 5.95195C13.731 6.04423 13.6058 6.09605 13.4754 6.09605H10.5234C10.2516 6.09605 10.0314 5.87578 10.0314 5.60405V5.11205H2.15918V23.316H17.4114V19.3799C17.4114 19.1082 17.6316 18.8879 17.9034 18.8879H21.8394V5.11182H13.9677L13.9674 5.60405ZM11.9994 17.904H4.61942C4.34769 17.904 4.12742 17.6838 4.12742 17.412C4.12742 17.1403 4.34769 16.92 4.61942 16.92H11.9994C12.2711 16.92 12.4914 17.1403 12.4914 17.412C12.4914 17.6838 12.2711 17.904 11.9994 17.904ZM19.3794 14.952L4.61942 14.9522C4.34769 14.9522 4.12742 14.7319 4.12742 14.4602C4.12742 14.1885 4.34769 13.9682 4.61942 13.9682H19.3794C19.6511 13.9682 19.8714 14.1885 19.8714 14.4602C19.8714 14.7319 19.6511 14.9522 19.3794 14.9522V14.952ZM19.3794 12L4.61942 12.0001C4.34769 12.0001 4.12742 11.7799 4.12742 11.5081C4.12742 11.2364 4.34769 11.0161 4.61942 11.0161H19.3794C19.6511 11.0161 19.8714 11.2364 19.8714 11.5081C19.8714 11.7799 19.6511 12.0001 19.3794 12.0001V12ZM19.3794 9.04791L4.61942 9.04809C4.34769 9.04809 4.12742 8.82781 4.12742 8.55609C4.12742 8.28436 4.34769 8.06409 4.61942 8.06409H19.3794C19.6511 8.06409 19.8714 8.28436 19.8714 8.55609C19.8714 8.82781 19.6511 9.04809 19.3794 9.04809V9.04791Z" fill="#9D0053"/>
</svg>
