<svg width="154" height="57" viewBox="0 0 154 57" fill="none" xmlns="http://www.w3.org/2000/svg">
<path opacity="0.3" d="M3.86142e-05 48.3203C3.86142e-05 52.7732 34.2592 56.3832 76.52 56.3832C118.781 56.3832 153.04 52.7732 153.04 48.3203C153.04 43.8682 118.781 40.2588 76.52 40.2588C34.2589 40.2588 3.86142e-05 43.8682 3.86142e-05 48.3203Z" fill="#050304"/>
<path d="M138.891 43.7242H112.382L45.8693 41.4262L21.7117 40.0139L16.9864 35.2888L20.2333 19.5352L119.553 23.3478L138.891 26.6164L143.793 35.0509L138.891 43.7242Z" fill="#050304"/>
<path d="M115.09 42.8284C115.09 48.9512 120.053 53.914 126.175 53.914C132.298 53.914 137.261 48.9512 137.261 42.8284C137.261 36.7064 132.298 31.7437 126.175 31.7437C120.053 31.7434 115.09 36.7061 115.09 42.8284Z" fill="#333333"/>
<path d="M116.254 42.8279C116.254 48.3073 120.696 52.7485 126.175 52.7485C131.654 52.7485 136.096 48.3073 136.096 42.8279C136.096 37.3488 131.654 32.9072 126.175 32.9072C120.696 32.9072 116.254 37.3488 116.254 42.8279Z" fill="#252626"/>
<path d="M126.176 50.3316C122.032 50.3316 118.673 46.9724 118.673 42.8287C118.673 38.6849 122.032 35.3257 126.176 35.3257C130.32 35.3257 133.679 38.6849 133.679 42.8287C133.679 46.9724 130.32 50.3316 126.176 50.3316Z" fill="#333333"/>
<path d="M121.045 42.8282C121.045 45.6613 123.342 47.9579 126.175 47.9579C129.008 47.9579 131.305 45.6613 131.305 42.8282C131.305 39.9956 129.008 37.6987 126.175 37.6987C123.342 37.6987 121.045 39.9953 121.045 42.8282Z" fill="#505151"/>
<path d="M126.175 35.6202C122.2 35.6202 118.967 38.8538 118.967 42.8283C118.967 46.8027 122.2 50.0366 126.175 50.0366C130.15 50.0366 133.383 46.8027 133.383 42.8283C133.383 38.8538 130.15 35.6202 126.175 35.6202ZM126.175 35.0503C130.47 35.0503 133.953 38.5332 133.953 42.8283C133.953 47.1242 130.47 50.6065 126.175 50.6065C121.88 50.6065 118.397 47.1242 118.397 42.8283C118.397 38.5332 121.88 35.0503 126.175 35.0503Z" fill="white"/>
<path d="M118.759 43.1662L118.802 41.5726L125.514 42.8752L125.591 42.8134L125.565 42.7185L119.37 39.8275L120.271 38.5123L125.321 41.8285L123.729 36.0003L125.258 35.5498L126.093 42.3352L126.175 42.3894L126.257 42.3352L127.093 35.5498L128.622 36.0003L127.029 41.8285L132.08 38.5123L132.981 39.8275L126.786 42.7185L126.76 42.8134L126.836 42.8752L133.548 41.5729L133.592 43.1662L127.556 43.4523L132.271 47.2313L131.299 48.4951L126.635 43.4956L126.537 43.501L126.502 43.5928L129.814 49.574L128.312 50.1072L126.175 44.4562L124.038 50.1072L122.536 49.574L125.849 43.5928L125.814 43.501L125.716 43.4956L121.051 48.4951L120.079 47.2313L124.794 43.4523L118.759 43.1662Z" fill="white"/>
<path d="M124.772 42.8279C124.772 43.6027 125.4 44.2314 126.175 44.2314C126.95 44.2314 127.578 43.6027 127.578 42.8279C127.578 42.0534 126.95 41.4253 126.175 41.4253C125.4 41.4253 124.772 42.0534 124.772 42.8279Z" fill="white"/>
<path d="M125.28 42.8277C125.28 43.3224 125.68 43.7234 126.175 43.7234C126.67 43.7234 127.07 43.3227 127.07 42.8277C127.07 42.3333 126.67 41.9326 126.175 41.9326C125.68 41.9326 125.28 42.333 125.28 42.8277Z" fill="#333333"/>
<path d="M22.7054 42.8284C22.7054 48.9512 27.6684 53.914 33.7907 53.914C39.913 53.914 44.876 48.9512 44.876 42.8284C44.876 36.7064 39.913 31.7437 33.7907 31.7437C27.6684 31.7434 22.7054 36.7061 22.7054 42.8284Z" fill="#333333"/>
<path d="M23.8694 42.8279C23.8694 48.3073 28.3115 52.7485 33.7903 52.7485C39.2694 52.7485 43.7109 48.3073 43.7109 42.8279C43.7109 37.3488 39.2694 32.9072 33.7903 32.9072C28.3115 32.9072 23.8694 37.3488 23.8694 42.8279Z" fill="#252626"/>
<path d="M26.2881 42.8287C26.2881 46.9732 29.6476 50.3316 33.7913 50.3316C37.935 50.3316 41.2939 46.9732 41.2939 42.8287C41.2939 38.6852 37.935 35.3257 33.7913 35.3257C29.6476 35.3257 26.2881 38.6852 26.2881 42.8287Z" fill="#333333"/>
<path d="M28.6605 42.8282C28.6605 45.6613 30.957 47.9579 33.7905 47.9579C36.6234 47.9579 38.9199 45.6613 38.9199 42.8282C38.9199 39.9956 36.6234 37.6987 33.7905 37.6987C30.9568 37.6987 28.6605 39.9953 28.6605 42.8282Z" fill="#505151"/>
<path d="M33.7911 35.6202C29.8167 35.6202 26.5828 38.8538 26.5828 42.8283C26.5828 46.8027 29.8167 50.0366 33.7911 50.0366C37.7656 50.0366 40.9994 46.8027 40.9994 42.8283C40.9994 38.8538 37.7656 35.6202 33.7911 35.6202ZM33.7911 35.0503C38.0862 35.0503 41.5693 38.5332 41.5693 42.8283C41.5693 47.1242 38.0862 50.6065 33.7911 50.6065C29.4955 50.6065 26.0129 47.1242 26.0129 42.8283C26.0129 38.5332 29.4952 35.0503 33.7911 35.0503Z" fill="white"/>
<path d="M26.3741 43.1662L26.4177 41.5726L33.1293 42.8752L33.2063 42.8134L33.18 42.7185L26.9848 39.8275L27.8865 38.5123L32.9367 41.8285L31.344 36.0003L32.8728 35.5498L33.7084 42.3352L33.7907 42.3894L33.8725 42.3352L34.7078 35.5498L36.2375 36.0003L34.6445 41.8285L39.6947 38.5123L40.5966 39.8275L34.4006 42.7185L34.3749 42.8134L34.4519 42.8752L41.1637 41.5729L41.207 43.1662L35.1714 43.4523L39.8862 47.2313L38.9139 48.4951L34.2498 43.4956L34.1518 43.501L34.1167 43.5928L37.4295 49.574L35.9274 50.1072L33.7907 44.4562L31.6535 50.1072L30.1511 49.574L33.4639 43.5928L33.4288 43.501L33.3308 43.4956L28.6667 48.4951L27.695 47.2313L32.4092 43.4523L26.3741 43.1662Z" fill="white"/>
<path d="M32.3876 42.8279C32.3876 43.6027 33.0159 44.2314 33.7907 44.2314C34.5656 44.2314 35.1934 43.6027 35.1934 42.8279C35.1934 42.0534 34.5656 41.4253 33.7907 41.4253C33.0159 41.4253 32.3876 42.0534 32.3876 42.8279Z" fill="white"/>
<path d="M32.8958 42.8277C32.8958 43.3224 33.2964 43.7234 33.7914 43.7234C34.2861 43.7234 34.6865 43.3227 34.6865 42.8277C34.6865 42.3333 34.2864 41.9326 33.7914 41.9326C33.2964 41.9326 32.8958 42.333 32.8958 42.8277Z" fill="#333333"/>
<path d="M3.75955 27.4738L6.10827 24.1365C6.84976 17.4001 8.39457 14.8665 8.39457 14.8665L7.80298 12.4043L9.51279 11.2645L21.2694 9.8396C39.4384 -1.98663 77.4777 0.150642 77.4777 0.150642C95.1457 1.14803 117.194 15.9798 117.194 15.9798C130.238 16.6529 142.357 22.2076 142.357 22.2076C149.09 25.658 150.689 31.5486 150.689 31.5486C151.446 35.5883 150.689 42.4051 150.689 42.4051L147.828 44.7615H138.253V40.0133C138.253 33.3422 132.845 27.9346 126.174 27.9346C119.504 27.9346 114.096 33.3422 114.096 40.0133V44.7615H112.813L45.8693 42.4338V40.0133C45.8693 33.3422 40.4609 27.9346 33.7904 27.9346C27.1193 27.9346 21.7114 33.3422 21.7114 40.0133V41.5938L20.8782 41.5647L6.2308 39.4015C3.6356 37.9801 3.45008 32.7269 3.45008 32.7269L3.75955 27.4738Z" fill="#9D0053"/>
<path d="M110.881 18.4111C110.881 18.4111 112.786 33.0528 108.615 41.4255L52.8842 39.1828L35.1934 19.8471V16.6246L38.9202 10.8369C38.9202 10.8369 102.911 13.7524 110.881 18.4111Z" fill="#9D0053"/>
<path opacity="0.3" d="M108.745 41.6438L108.807 41.5198C112.958 33.1853 111.113 18.5296 111.093 18.3829L111.08 18.2789L110.989 18.2259C103.065 13.594 41.545 10.742 38.9302 10.6229L38.807 10.6172L34.9794 16.5608V19.9288L35.0349 19.9901L52.7865 39.3917L52.8756 39.3951L108.745 41.6438ZM110.682 18.5433C110.84 19.8713 112.317 33.3395 108.485 41.2058L52.9819 38.9722L35.4068 19.7636V16.687L39.033 11.0558C42.1828 11.2031 102.635 14.0901 110.682 18.5433Z" fill="#050304"/>
<path d="M115.389 18.8992C115.389 18.8992 91.5554 -1.00503 69.9454 1.08037C69.9454 1.08037 40.8943 1.87515 32.388 9.91328C32.388 9.91328 54.2114 15.2975 115.389 18.8992Z" fill="white"/>
<path d="M74.9965 15.7068L73.8011 9.34968C73.6558 8.41698 74.2946 7.54241 75.2276 7.39707C76.1603 7.25174 77.0346 7.89063 77.18 8.82362L78.3027 15.8917L74.9965 15.7068Z" fill="#333333"/>
<path d="M94.3651 13.5137C94.3902 13.1302 94.7236 12.8352 95.1057 12.8654C95.4896 12.8908 95.7797 13.2222 95.7543 13.606L95.538 16.8701L94.1479 16.7926L94.3651 13.5137Z" fill="#333333"/>
<path d="M72.8156 5.14599C72.8156 5.14599 62.7926 5.4395 53.1305 7.46677C53.0966 7.48216 49.7827 8.98709 49.573 12.8647C37.4635 11.1648 32.388 9.91324 32.388 9.91324C40.8943 1.87511 69.9454 1.08034 69.9454 1.08034C91.5554 -1.00479 115.389 18.8992 115.389 18.8992C113.485 18.7872 111.621 18.6732 109.793 18.5581C101.89 12.8259 86.8537 3.70005 72.8156 5.14599Z" fill="#333333"/>
<path opacity="0.3" d="M12.6609 20.9531C29.0401 21.9229 23.8699 29.3515 23.8699 29.3515C26.4748 26.9369 29.9594 25.4591 33.7908 25.4591C41.559 25.4591 47.9073 31.5275 48.3598 39.182L48.3615 39.1826H52.8842L108.616 41.4253H111.642H111.643C111.601 40.9742 111.577 40.5177 111.577 40.0558C111.577 31.994 118.113 25.4588 126.175 25.4588C134.237 25.4588 140.773 31.994 140.773 40.0558C140.773 40.5177 140.749 40.9742 140.707 41.4253H140.708L150.689 42.4048L147.828 44.7612H138.254V40.013C138.254 33.3419 132.846 27.9343 126.175 27.9343C119.504 27.9343 114.096 33.3419 114.096 40.013V44.7612H112.814L45.8697 42.4335V40.013C45.8697 33.3419 40.4613 27.9343 33.7908 27.9343C27.1197 27.9343 21.7118 33.3419 21.7118 40.013V41.5935L20.8786 41.5644L6.23117 39.4012C3.63597 37.9798 3.45044 32.7266 3.45044 32.7266L3.75938 27.4732C9.82807 24.5731 12.6609 20.9531 12.6609 20.9531Z" fill="#050304"/>
<path opacity="0.3" d="M24.682 20.1083C24.682 21.6859 25.9604 22.9645 27.5383 22.9645C29.1162 22.9645 30.3945 21.6859 30.3945 20.1083C30.3945 18.5304 29.1162 17.2515 27.5383 17.2515C25.9604 17.2515 24.682 18.5304 24.682 20.1083Z" stroke="#050304" stroke-miterlimit="10"/>
<path opacity="0.3" d="M150.689 42.4046L147.828 44.761H138.254V40.0129C138.254 33.3417 132.845 27.9341 126.175 27.9341C119.504 27.9341 114.096 33.3417 114.096 40.0129V44.761H112.814L45.8694 42.4334V40.0129C45.8694 33.3417 40.461 27.9341 33.7904 27.9341C27.1193 27.9341 21.7115 33.3417 21.7115 40.0129V41.5933L20.8782 41.5642L6.23085 39.401C3.63564 37.9796 3.45012 32.7265 3.45012 32.7265L3.75902 27.4731L6.10774 24.1358C6.84922 17.3994 8.39404 14.8657 8.39404 14.8657C109.087 19.503 141.355 30.3256 151.014 35.218C151.093 38.7579 150.689 42.4046 150.689 42.4046Z" fill="#050304"/>
<path d="M6.56397 20.9541C7.3482 16.5875 8.39516 14.8672 8.39516 14.8672C13.6164 15.1077 18.6506 15.365 23.5107 15.6369C23.5028 15.6437 16.1993 22.1302 6.56397 20.9541Z" fill="#FBB03B"/>
<path d="M12.5781 29.1262C12.5781 29.1262 10.0174 31.9337 3.4503 32.7274L3.62185 29.8141C3.62185 29.8141 6.92891 28.106 12.5781 29.1262Z" fill="#D72E03"/>
<path d="M73.1837 2.06712C72.1239 2.06712 71.0713 2.11701 70.0548 2.21504L70.0157 2.21902L69.9764 2.21987C69.7091 2.22728 44.9006 2.98473 35.029 9.31219C41.9783 10.6977 64.8356 14.6454 111.751 17.5384C109.415 15.8252 105.811 13.3454 101.445 10.8852C94.3059 6.86289 83.6082 2.06799 73.184 2.06742H73.1837M73.1854 0.927246C93.8682 0.928386 115.389 18.8991 115.389 18.8991C54.2114 15.2974 32.388 9.9132 32.388 9.9132C40.8943 1.87506 69.9454 1.08029 69.9454 1.08029C71.0217 0.97656 72.1014 0.927246 73.1854 0.927246Z" fill="#0A0E11"/>
<path opacity="0.3" d="M113.751 18.8009L114.41 18.5356C115.611 18.7012 142.978 22.5788 150.437 30.8252C150.616 31.2792 150.69 31.5479 150.69 31.5479C150.71 31.6573 150.729 31.7696 150.747 31.883C144.44 23.2171 114.053 18.8425 113.751 18.8009Z" fill="#050304"/>
<path opacity="0.3" d="M74.6503 19.8132C74.603 20.4358 76.1207 21.0585 78.04 21.2035C79.9587 21.3483 81.5525 20.9607 81.5995 20.3381C81.6465 19.7146 80.1291 19.0922 78.2101 18.9474C76.2911 18.8024 74.6973 19.1899 74.6503 19.8132Z" fill="#050304"/>
<path d="M81.7806 20.9266C82.0083 20.9437 82.2106 20.7782 82.2374 20.5499C82.2644 20.3154 82.0963 20.1034 81.8621 20.076L74.5991 19.2339C74.3725 19.2151 74.1528 19.375 74.1255 19.6092C74.0981 19.844 74.2662 20.0558 74.5005 20.0831L81.7635 20.9252C81.7692 20.9258 81.7749 20.9261 81.7806 20.9266Z" fill="white"/>
<path opacity="0.3" d="M39.4481 16.9894C39.4014 17.6124 40.9191 18.2347 42.8375 18.3798C44.7565 18.5246 46.3501 18.1367 46.3974 17.5144C46.4447 16.8908 44.9269 16.2685 43.0082 16.1237C41.0895 15.9786 39.4954 16.3659 39.4481 16.9894Z" fill="#050304"/>
<path d="M46.5787 18.1029C46.8063 18.12 47.009 17.9547 47.0352 17.7262C47.0625 17.4916 46.8944 17.2796 46.6601 17.2523L39.3975 16.4102C39.1709 16.3914 38.9506 16.5513 38.9233 16.7855C38.8959 17.0203 39.064 17.232 39.2989 17.2594L46.5616 18.1015C46.567 18.1021 46.573 18.1023 46.5787 18.1029Z" fill="white"/>
<path d="M73.8877 15.7117C72.4127 15.5667 70.9813 15.4219 69.5944 15.2777L68.4856 1.13925C69.4157 1.09508 69.9449 1.08027 69.9449 1.08027C70.1324 1.06203 70.321 1.04977 70.5091 1.03467C70.5148 1.0492 72.2597 5.53491 73.8877 15.7117Z" fill="#1A1A1A"/>
<path opacity="0.3" d="M69.5948 1.09119C69.8231 1.08293 69.9453 1.07952 69.9453 1.07952C69.9715 1.07696 69.9972 1.07552 70.0231 1.07324L71.7278 14.069C71.7458 14.2197 73.5094 29.2824 71.7238 39.3256L71.5884 39.9351L71.1544 39.9174L71.3046 39.2418C73.0774 29.2707 71.3209 14.2699 71.3035 14.1223L69.5948 1.09119Z" fill="#050304"/>
<path d="M38.9204 10.8375L42.9795 5.05664C42.9795 5.05664 35.2714 8.09355 33.791 9.91337L38.9204 10.8375Z" fill="#0A0E11"/>
<path d="M150.911 39.6888C145.882 38.7917 146.813 33.3554 146.814 33.3525C148.546 34.0385 149.925 34.6663 151.015 35.2185C151.05 36.7987 150.989 38.3999 150.911 39.6888Z" fill="#D72E03"/>
<path d="M148.214 29.4353C146.564 29.5786 137.376 30.1252 137.946 24.4834C141.959 25.8778 145.642 27.5291 148.214 29.4353Z" fill="white"/>
</svg>
