<svg width="24" height="24" viewBox="0 0 24 24" fill="none" xmlns="http://www.w3.org/2000/svg">
<rect width="24" height="24" rx="8" fill="#D2A054"/>
<mask id="mask0_2122_2100" style="mask-type:luminance" maskUnits="userSpaceOnUse" x="0" y="0" width="24" height="24">
<path d="M0.191406 0.191895H23.8075V23.808H0.191406V0.191895Z" fill="white"/>
</mask>
<g mask="url(#mask0_2122_2100)">
<path fill-rule="evenodd" clip-rule="evenodd" d="M11.9993 7.2002C9.34841 7.2002 7.19922 9.3492 7.19922 12.0003C7.19922 14.6512 9.34822 16.8002 11.9993 16.8002C14.6502 16.8002 16.7992 14.6512 16.7992 12.0003C16.7992 9.34939 14.6502 7.2002 11.9993 7.2002ZM14.9993 12.3002C15.165 12.3002 15.2993 12.1659 15.2993 12.0003C15.2993 11.8346 15.165 11.7002 14.9993 11.7002H12.2992V9.00015C12.2992 8.83446 12.165 8.70011 11.9993 8.70011C11.8336 8.70011 11.6992 8.83446 11.6992 9.00015V12.0001C11.6992 12.1658 11.8336 12.3001 11.9993 12.3001L14.9993 12.3002Z" fill="white"/>
</g>
</svg>
