<svg width="24" height="24" viewBox="0 0 24 24" fill="none" xmlns="http://www.w3.org/2000/svg">
<rect width="24" height="24" rx="8" fill="#D2A054"/>
<g clip-path="url(#clip0_2122_1946)">
<path d="M12.0315 13.691C12.0315 12.1727 10.7963 10.9375 9.27792 10.9375C7.75961 10.9375 6.52441 12.1727 6.52441 13.691C6.52441 14.136 6.63058 14.5565 6.8188 14.9288L9.27792 20.0001L11.7375 14.928C11.9254 14.5559 12.0315 14.1356 12.0315 13.691ZM9.27792 15.2148C8.43772 15.2148 7.75412 14.5312 7.75412 13.691C7.75412 12.8508 8.43772 12.1672 9.27792 12.1672C10.1182 12.1672 10.8017 12.8508 10.8017 13.691C10.8017 14.5312 10.1182 15.2148 9.27792 15.2148Z" fill="white"/>
<path d="M17.0799 5C16.3111 5 15.6855 5.62548 15.6855 6.3943C15.6855 6.61961 15.7393 6.83255 15.8346 7.02112L17.0799 9.58906L18.3253 7.02071C18.4205 6.83227 18.4742 6.61945 18.4742 6.39433C18.4742 5.62548 17.8487 5 17.0799 5ZM17.0799 7.16592C16.6544 7.16592 16.3082 6.81978 16.3082 6.3943C16.3082 5.96884 16.6544 5.62267 17.0799 5.62267C17.5053 5.62267 17.8515 5.96884 17.8515 6.3943C17.8515 6.81978 17.5053 7.16592 17.0799 7.16592Z" fill="white"/>
<path d="M15.8657 14.0459C15.8091 13.7798 15.7356 13.5191 15.6431 13.2631C15.519 12.9202 15.3703 12.585 15.2563 12.2382C15.0433 11.5898 15.4107 11.0487 15.4798 10.9504C15.6008 10.7782 15.7422 10.6201 15.8915 10.4721C16.1789 10.1872 16.4959 9.93247 16.8275 9.69789C16.7864 9.63425 16.7466 9.56991 16.7087 9.50439C16.2317 9.69137 13.7791 10.5486 13.8389 12.4424C13.8508 12.822 13.9975 13.1833 14.0879 13.5513C14.1315 13.7286 14.1692 13.9075 14.1923 14.0887C14.2023 14.1703 14.2084 14.2524 14.2151 14.3344C14.2153 14.3338 14.2152 14.3333 14.2148 14.333C14.2151 14.3354 14.2211 14.5929 14.2097 14.7044C14.1739 15.0537 14.1224 15.4066 13.9751 15.727C13.8382 16.0249 13.6316 16.2839 13.376 16.4887C12.7918 16.9567 12.0177 17.1438 11.2873 17.219C11.2526 17.2227 11.2178 17.2258 11.183 17.2288L9.87891 19.9181C10.5224 19.8781 11.1642 19.79 11.7903 19.6359C12.5272 19.4545 13.2453 19.1805 13.8888 18.7744C14.5317 18.3688 15.0846 17.82 15.4526 17.1518C15.8377 16.4528 15.9919 15.6523 15.9591 14.859C15.9479 14.588 15.9222 14.3118 15.8657 14.0459Z" fill="white"/>
</g>
<defs>
<clipPath id="clip0_2122_1946">
<rect width="15" height="15" fill="white" transform="translate(5 5)"/>
</clipPath>
</defs>
</svg>
