<svg width="343" height="229" viewBox="0 0 343 229" fill="none" xmlns="http://www.w3.org/2000/svg">
<path d="M159.467 29.6552C158.971 29.2914 158.381 29.0785 157.767 29.042C157.153 29.0054 156.541 29.1468 156.005 29.4491C154.597 26.6095 150.687 25.3546 147.892 26.8522C147.527 25.3045 146.646 23.9276 145.394 22.9484C144.143 21.9692 142.596 21.4462 141.008 21.4654C139.42 21.4846 137.885 22.0449 136.658 23.054C135.43 24.0632 134.583 25.461 134.255 27.0171C134.209 27.515 134.027 27.9906 133.729 28.3911C133.162 28.9682 132.215 28.7758 131.405 28.7117C130.126 28.6436 128.861 29.0054 127.81 29.7398C126.759 30.4741 125.984 31.5389 125.606 32.765L160.666 32.6368C160.981 31.4551 160.446 30.3926 159.467 29.6552Z" fill="#E6E6E6"/>
<path d="M194.01 48.3875C193.695 48.1567 193.32 48.0215 192.93 47.9979C192.54 47.9744 192.151 48.0635 191.81 48.2546C191.329 47.3708 190.527 46.7068 189.569 46.4005C188.612 46.0943 187.573 46.1695 186.67 46.6104C186.438 45.629 185.88 44.7558 185.087 44.1346C184.293 43.5135 183.313 43.1814 182.306 43.1932C181.299 43.2049 180.326 43.5597 179.547 44.1992C178.768 44.8386 178.23 45.7246 178.022 46.7112C177.994 47.0297 177.879 47.3343 177.688 47.5905C177.331 47.9569 176.728 47.8333 176.215 47.7966C175.408 47.7599 174.611 47.9921 173.949 48.457C173.287 48.9218 172.797 49.5931 172.557 50.366L194.788 50.2836C194.87 49.9258 194.84 49.5512 194.7 49.2116C194.561 48.8719 194.32 48.5839 194.01 48.3875Z" fill="#E6E6E6"/>
<path d="M249.384 24.4021C249.069 24.1703 248.694 24.0344 248.304 24.0108C247.914 23.9873 247.525 24.077 247.184 24.2693C246.703 23.3855 245.901 22.7214 244.943 22.4152C243.986 22.1089 242.947 22.1841 242.044 22.6251C241.812 21.6436 241.254 20.7704 240.461 20.1493C239.667 19.5281 238.687 19.1961 237.68 19.2078C236.673 19.2196 235.7 19.5744 234.921 20.2138C234.142 20.8533 233.604 21.7393 233.396 22.7258C233.368 23.0444 233.253 23.3489 233.062 23.6052C232.705 23.9716 232.102 23.8479 231.589 23.8067C230.781 23.7703 229.984 24.0031 229.322 24.4689C228.66 24.9346 228.171 25.6069 227.931 26.3807L250.162 26.2982C250.244 25.9405 250.214 25.5659 250.074 25.2262C249.935 24.8865 249.694 24.5986 249.384 24.4021Z" fill="#F5F5F5"/>
<path d="M77.5999 43.6701C77.1031 43.3054 76.5118 43.092 75.8969 43.0554C75.2821 43.0188 74.6697 43.1607 74.1333 43.464C72.7156 40.6244 68.8145 39.3878 66.0248 40.8671C65.6572 39.3205 64.7751 37.9452 63.5235 36.9674C62.2718 35.9895 60.7252 35.4672 59.1378 35.4864C57.5505 35.5055 56.0169 36.0651 54.7892 37.0729C53.5615 38.0808 52.7128 39.477 52.3826 41.032C52.3418 41.5301 52.161 42.0065 51.8612 42.406C51.2941 42.9831 50.3474 42.7907 49.5379 42.7266C48.2581 42.659 46.9923 43.021 45.9411 43.7552C44.8899 44.4894 44.1133 45.5538 43.7344 46.7799L78.7981 46.6517C79.1183 45.47 78.5786 44.4258 77.5999 43.6701Z" fill="#E6E6E6"/>
<path d="M106.558 58.9307C106.222 58.6833 105.821 58.5382 105.404 58.5131C104.987 58.4879 104.572 58.5836 104.208 58.7887C103.694 57.8457 102.837 57.1367 101.816 56.8084C100.794 56.4802 99.6857 56.5579 98.7197 57.0254C98.4718 55.9746 97.8737 55.0397 97.024 54.3749C96.1743 53.7102 95.1238 53.3552 94.0457 53.3685C92.9676 53.3819 91.9261 53.7627 91.0931 54.4483C90.2601 55.1339 89.6852 56.0833 89.4633 57.1399C89.4299 57.4721 89.3066 57.7889 89.1066 58.0559C88.7224 58.4498 88.0776 58.317 87.5288 58.2712C86.6614 58.2261 85.8038 58.4718 85.0915 58.9695C84.3792 59.4672 83.8529 60.1884 83.5957 61.0192L107.377 60.9322C107.462 60.5548 107.429 60.1603 107.282 59.8023C107.136 59.4443 106.883 59.1401 106.558 58.9307Z" fill="#F5F5F5"/>
<path d="M83.116 96.3769C82.7784 96.1312 82.3774 95.9877 81.9608 95.9633C81.5441 95.939 81.1292 96.0348 80.7653 96.2395C80.2513 95.2965 79.3949 94.5874 78.3733 94.2592C77.3517 93.931 76.2433 94.0087 75.2773 94.4762C75.026 93.4287 74.4268 92.4978 73.578 91.8359C72.7291 91.1741 71.681 90.8206 70.6053 90.8333C69.5296 90.8461 68.4902 91.2244 67.6573 91.9062C66.8244 92.588 66.2474 93.533 66.0209 94.5861C65.9876 94.9183 65.8642 95.2351 65.6642 95.5021C65.28 95.896 64.6352 95.7632 64.0864 95.722C63.219 95.6769 62.3614 95.9226 61.6491 96.4203C60.9368 96.9179 60.4105 97.6392 60.1533 98.47L83.9347 98.383C84.0199 98.0049 83.9871 97.6097 83.8406 97.2509C83.6942 96.8921 83.4413 96.587 83.116 96.3769Z" fill="#F5F5F5"/>
<path d="M322.191 49.8945C321.854 49.6488 321.453 49.5052 321.036 49.4809C320.619 49.4565 320.204 49.5524 319.841 49.7571C319.327 48.814 318.47 48.105 317.449 47.7768C316.427 47.4485 315.318 47.5262 314.353 47.9938C314.101 46.9463 313.502 46.0153 312.653 45.3535C311.804 44.6916 310.756 44.3381 309.681 44.3509C308.605 44.3637 307.565 44.742 306.732 45.4238C305.9 46.1056 305.323 47.0505 305.096 48.1037C305.063 48.4359 304.939 48.7526 304.739 49.0197C304.355 49.4136 303.71 49.2854 303.162 49.2396C302.294 49.1944 301.437 49.4402 300.724 49.9378C300.012 50.4355 299.486 51.1568 299.229 51.9876L323.01 51.9005C323.094 51.5225 323.061 51.1275 322.915 50.7689C322.769 50.4102 322.516 50.1051 322.191 49.8945Z" fill="#F5F5F5"/>
<path d="M305.082 97.3434L304.698 76.1884H292.858V81.0112H284.141V28.1763H267.38V48.9741H262.354V38.5866H249.274V89.2323H230.834V71.3382H219.273V32.5456H205.004V58.4088H191.59V114.125H181.2V86.9926H170.471V69.5337H159.074V56.1326L146.356 62.8469V98.7128H132.947V91.3116H115.028V143.29L323.559 143.391V97.3434H305.082Z" fill="#EBEBEB"/>
<path d="M171.345 143.318V65.9844H157.099V143.386C161.608 143.281 171.345 143.318 171.345 143.318Z" fill="#E6E6E6"/>
<path d="M158.37 143.391V100.861H129.046V143.299L158.37 143.391Z" fill="#FAFAFA"/>
<path d="M193.996 143.354V80.8921H177.386V143.322L193.996 143.354Z" fill="#E0E0E0"/>
<path d="M180.661 83.3379H178.648V87.4965H180.661V83.3379Z" fill="#FAFAFA"/>
<path d="M184.685 83.3379H182.673V87.4965H184.685V83.3379Z" fill="#FAFAFA"/>
<path d="M188.713 83.3379H186.701V87.4965H188.713V83.3379Z" fill="#FAFAFA"/>
<path d="M192.739 83.3379H190.727V87.4965H192.739V83.3379Z" fill="#FAFAFA"/>
<path d="M180.661 90.3179H178.648V94.4765H180.661V90.3179Z" fill="#FAFAFA"/>
<path d="M184.685 90.3179H182.673V94.4765H184.685V90.3179Z" fill="#FAFAFA"/>
<path d="M188.713 90.3179H186.701V94.4765H188.713V90.3179Z" fill="#FAFAFA"/>
<path d="M192.739 90.3179H190.727V94.4765H192.739V90.3179Z" fill="#FAFAFA"/>
<path d="M180.661 97.2886H178.648V101.447H180.661V97.2886Z" fill="#FAFAFA"/>
<path d="M184.685 97.2886H182.673V101.447H184.685V97.2886Z" fill="#FAFAFA"/>
<path d="M188.713 97.2886H186.701V101.447H188.713V97.2886Z" fill="#FAFAFA"/>
<path d="M192.739 97.2886H190.727V101.447H192.739V97.2886Z" fill="#FAFAFA"/>
<path d="M180.661 104.264H178.648V108.422H180.661V104.264Z" fill="#FAFAFA"/>
<path d="M184.685 104.264H182.673V108.422H184.685V104.264Z" fill="#FAFAFA"/>
<path d="M188.713 104.264H186.701V108.422H188.713V104.264Z" fill="#FAFAFA"/>
<path d="M192.739 104.264H190.727V108.422H192.739V104.264Z" fill="#FAFAFA"/>
<path d="M180.661 111.234H178.648V115.393H180.661V111.234Z" fill="#FAFAFA"/>
<path d="M184.685 111.234H182.673V115.393H184.685V111.234Z" fill="#FAFAFA"/>
<path d="M188.713 111.234H186.701V115.393H188.713V111.234Z" fill="#FAFAFA"/>
<path d="M192.739 111.234H190.727V115.393H192.739V111.234Z" fill="#FAFAFA"/>
<path d="M180.661 118.205H178.648V122.364H180.661V118.205Z" fill="#FAFAFA"/>
<path d="M184.685 118.205H182.673V122.364H184.685V118.205Z" fill="#FAFAFA"/>
<path d="M188.713 118.205H186.701V122.364H188.713V118.205Z" fill="#FAFAFA"/>
<path d="M192.739 118.205H190.727V122.364H192.739V118.205Z" fill="#FAFAFA"/>
<path d="M180.661 125.181H178.648V129.339H180.661V125.181Z" fill="#FAFAFA"/>
<path d="M184.685 125.181H182.673V129.339H184.685V125.181Z" fill="#FAFAFA"/>
<path d="M188.713 125.181H186.701V129.339H188.713V125.181Z" fill="#FAFAFA"/>
<path d="M192.739 125.181H190.727V129.339H192.739V125.181Z" fill="#FAFAFA"/>
<path d="M180.661 132.156H178.648V136.315H180.661V132.156Z" fill="#FAFAFA"/>
<path d="M184.685 132.156H182.673V136.315H184.685V132.156Z" fill="#FAFAFA"/>
<path d="M188.713 132.156H186.701V136.315H188.713V132.156Z" fill="#FAFAFA"/>
<path d="M192.739 132.156H190.727V136.315H192.739V132.156Z" fill="#FAFAFA"/>
<path d="M251.721 143.354V71.9976H217.279V143.381C217.279 143.381 251.46 143.391 251.721 143.354Z" fill="#F5F5F5"/>
<path d="M224.043 74.8418H219.867V79.6325H224.043V74.8418Z" fill="#E6E6E6"/>
<path d="M232.398 74.8418H228.223V79.6325H232.398V74.8418Z" fill="#E6E6E6"/>
<path d="M240.75 74.8418H236.574V79.6325H240.75V74.8418Z" fill="#E6E6E6"/>
<path d="M249.105 74.8418H244.93V79.6325H249.105V74.8418Z" fill="#E6E6E6"/>
<path d="M224.043 82.8799H219.867V87.6706H224.043V82.8799Z" fill="#E6E6E6"/>
<path d="M232.398 82.8799H228.223V87.6706H232.398V82.8799Z" fill="#E6E6E6"/>
<path d="M240.75 82.8799H236.574V87.6706H240.75V82.8799Z" fill="#E6E6E6"/>
<path d="M249.105 82.8799H244.93V87.6706H249.105V82.8799Z" fill="#E6E6E6"/>
<path d="M224.043 90.9175H219.867V95.7082H224.043V90.9175Z" fill="#E6E6E6"/>
<path d="M232.398 90.9175H228.223V95.7082H232.398V90.9175Z" fill="#E6E6E6"/>
<path d="M240.75 90.9175H236.574V95.7082H240.75V90.9175Z" fill="#E6E6E6"/>
<path d="M249.105 90.9175H244.93V95.7082H249.105V90.9175Z" fill="#E6E6E6"/>
<path d="M224.043 98.9512H219.867V103.742H224.043V98.9512Z" fill="#E6E6E6"/>
<path d="M232.398 98.9512H228.223V103.742H232.398V98.9512Z" fill="#E6E6E6"/>
<path d="M240.75 98.9512H236.574V103.742H240.75V98.9512Z" fill="#E6E6E6"/>
<path d="M249.105 98.9512H244.93V103.742H249.105V98.9512Z" fill="#E6E6E6"/>
<path d="M224.043 106.989H219.867V111.779H224.043V106.989Z" fill="#E6E6E6"/>
<path d="M232.398 106.989H228.223V111.779H232.398V106.989Z" fill="#E6E6E6"/>
<path d="M240.75 106.989H236.574V111.779H240.75V106.989Z" fill="#E6E6E6"/>
<path d="M249.105 106.989H244.93V111.779H249.105V106.989Z" fill="#E6E6E6"/>
<path d="M224.043 115.022H219.867V119.813H224.043V115.022Z" fill="#E6E6E6"/>
<path d="M232.398 115.022H228.223V119.813H232.398V115.022Z" fill="#E6E6E6"/>
<path d="M240.75 115.022H236.574V119.813H240.75V115.022Z" fill="#E6E6E6"/>
<path d="M249.105 115.022H244.93V119.813H249.105V115.022Z" fill="#E6E6E6"/>
<path d="M224.043 123.065H219.867V127.856H224.043V123.065Z" fill="#E6E6E6"/>
<path d="M232.398 123.065H228.223V127.856H232.398V123.065Z" fill="#E6E6E6"/>
<path d="M240.75 123.065H236.574V127.856H240.75V123.065Z" fill="#E6E6E6"/>
<path d="M249.105 123.065H244.93V127.856H249.105V123.065Z" fill="#E6E6E6"/>
<path d="M224.043 131.098H219.867V135.889H224.043V131.098Z" fill="#E6E6E6"/>
<path d="M232.398 131.098H228.223V135.889H232.398V131.098Z" fill="#E6E6E6"/>
<path d="M240.75 131.098H236.574V135.889H240.75V131.098Z" fill="#E6E6E6"/>
<path d="M249.105 131.098H244.93V135.889H249.105V131.098Z" fill="#E6E6E6"/>
<path d="M163.57 71.2422H159.724V75.6573H163.57V71.2422Z" fill="#FAFAFA"/>
<path d="M163.57 78.6431H159.724V83.0582H163.57V78.6431Z" fill="#FAFAFA"/>
<path d="M163.57 86.0537H159.724V90.4688H163.57V86.0537Z" fill="#FAFAFA"/>
<path d="M163.57 93.4551H159.724V97.8702H163.57V93.4551Z" fill="#FAFAFA"/>
<path d="M163.57 100.861H159.724V105.276H163.57V100.861Z" fill="#FAFAFA"/>
<path d="M163.57 108.267H159.724V112.682H163.57V108.267Z" fill="#FAFAFA"/>
<path d="M163.57 115.672H159.724V120.087H163.57V115.672Z" fill="#FAFAFA"/>
<path d="M163.57 123.079H159.724V127.494H163.57V123.079Z" fill="#FAFAFA"/>
<path d="M168.714 71.2422H164.868V75.6573H168.714V71.2422Z" fill="#FAFAFA"/>
<path d="M168.714 78.6431H164.868V83.0582H168.714V78.6431Z" fill="#FAFAFA"/>
<path d="M168.714 86.0537H164.868V90.4688H168.714V86.0537Z" fill="#FAFAFA"/>
<path d="M168.714 93.4551H164.868V97.8702H168.714V93.4551Z" fill="#FAFAFA"/>
<path d="M168.714 100.861H164.868V105.276H168.714V100.861Z" fill="#FAFAFA"/>
<path d="M168.714 108.267H164.868V112.682H168.714V108.267Z" fill="#FAFAFA"/>
<path d="M168.714 115.672H164.868V120.087H168.714V115.672Z" fill="#FAFAFA"/>
<path d="M168.714 123.079H164.868V127.494H168.714V123.079Z" fill="#FAFAFA"/>
<path d="M212.445 37.6753H208.27V42.466H212.445V37.6753Z" fill="#FAFAFA"/>
<path d="M212.445 45.7085H208.27V50.4992H212.445V45.7085Z" fill="#FAFAFA"/>
<path d="M212.445 53.1968H208.27V57.9875H212.445V53.1968Z" fill="#FAFAFA"/>
<path d="M212.445 61.23H208.27V66.0207H212.445V61.23Z" fill="#FAFAFA"/>
<path d="M212.445 69.2637H208.27V74.0544H212.445V69.2637Z" fill="#FAFAFA"/>
<path d="M212.445 77.3062H208.27V82.0968H212.445V77.3062Z" fill="#FAFAFA"/>
<path d="M212.445 85.3394H208.27V90.13H212.445V85.3394Z" fill="#FAFAFA"/>
<path d="M212.445 93.377H208.27V98.1676H212.445V93.377Z" fill="#FAFAFA"/>
<path d="M275.164 30.709H270.988V35.4997H275.164V30.709Z" fill="#FAFAFA"/>
<path d="M275.164 38.7422H270.988V43.5329H275.164V38.7422Z" fill="#FAFAFA"/>
<path d="M275.164 46.7803H270.988V51.571H275.164V46.7803Z" fill="#FAFAFA"/>
<path d="M275.164 54.8135H270.988V59.6042H275.164V54.8135Z" fill="#FAFAFA"/>
<path d="M275.164 62.856H270.988V67.6466H275.164V62.856Z" fill="#FAFAFA"/>
<path d="M275.164 70.8892H270.988V75.6798H275.164V70.8892Z" fill="#FAFAFA"/>
<path d="M275.164 78.9272H270.988V83.7179H275.164V78.9272Z" fill="#FAFAFA"/>
<path d="M275.164 86.9604H270.988V91.7511H275.164V86.9604Z" fill="#FAFAFA"/>
<path d="M305.082 67.624H279.934V143.391H305.082V67.624Z" fill="#E6E6E6"/>
<path d="M291.024 71.3613H283.651V76.152H291.024V71.3613Z" fill="#FAFAFA"/>
<path d="M291.024 79.3989H283.651V84.1896H291.024V79.3989Z" fill="#FAFAFA"/>
<path d="M291.024 87.4321H283.651V92.2228H291.024V87.4321Z" fill="#FAFAFA"/>
<path d="M291.024 95.4746H283.651V100.265H291.024V95.4746Z" fill="#FAFAFA"/>
<path d="M291.024 103.508H283.651V108.299H291.024V103.508Z" fill="#FAFAFA"/>
<path d="M291.024 111.542H283.651V116.332H291.024V111.542Z" fill="#FAFAFA"/>
<path d="M291.024 119.579H283.651V124.37H291.024V119.579Z" fill="#FAFAFA"/>
<path d="M291.024 127.617H283.651V132.408H291.024V127.617Z" fill="#FAFAFA"/>
<path d="M300.889 71.3613H293.517V76.152H300.889V71.3613Z" fill="#FAFAFA"/>
<path d="M300.889 79.3989H293.517V84.1896H300.889V79.3989Z" fill="#FAFAFA"/>
<path d="M300.889 87.4321H293.517V92.2228H300.889V87.4321Z" fill="#FAFAFA"/>
<path d="M300.889 95.4746H293.517V100.265H300.889V95.4746Z" fill="#FAFAFA"/>
<path d="M300.889 103.508H293.517V108.299H300.889V103.508Z" fill="#FAFAFA"/>
<path d="M300.889 111.542H293.517V116.332H300.889V111.542Z" fill="#FAFAFA"/>
<path d="M300.889 119.579H293.517V124.37H300.889V119.579Z" fill="#FAFAFA"/>
<path d="M300.889 127.617H293.517V132.408H300.889V127.617Z" fill="#FAFAFA"/>
<path d="M266.218 143.354V90.9175H255.242V143.354H266.218Z" fill="#E0E0E0"/>
<path d="M257.415 93.0381H256.084V96.6105H257.415V93.0381Z" fill="#FAFAFA"/>
<path d="M260.076 93.0381H258.745V96.6105H260.076V93.0381Z" fill="#FAFAFA"/>
<path d="M262.728 93.0381H261.397V96.6105H262.728V93.0381Z" fill="#FAFAFA"/>
<path d="M265.39 93.0381H264.06V96.6105H265.39V93.0381Z" fill="#FAFAFA"/>
<path d="M257.415 99.0288H256.084V102.601H257.415V99.0288Z" fill="#FAFAFA"/>
<path d="M260.076 99.0288H258.745V102.601H260.076V99.0288Z" fill="#FAFAFA"/>
<path d="M262.728 99.0288H261.397V102.601H262.728V99.0288Z" fill="#FAFAFA"/>
<path d="M265.39 99.0288H264.06V102.601H265.39V99.0288Z" fill="#FAFAFA"/>
<path d="M257.415 105.02H256.084V108.592H257.415V105.02Z" fill="#FAFAFA"/>
<path d="M260.076 105.02H258.745V108.592H260.076V105.02Z" fill="#FAFAFA"/>
<path d="M262.728 105.02H261.397V108.592H262.728V105.02Z" fill="#FAFAFA"/>
<path d="M265.39 105.02H264.06V108.592H265.39V105.02Z" fill="#FAFAFA"/>
<path d="M257.415 111.01H256.084V114.583H257.415V111.01Z" fill="#FAFAFA"/>
<path d="M260.076 111.01H258.745V114.583H260.076V111.01Z" fill="#FAFAFA"/>
<path d="M262.728 111.01H261.397V114.583H262.728V111.01Z" fill="#FAFAFA"/>
<path d="M265.39 111.01H264.06V114.583H265.39V111.01Z" fill="#FAFAFA"/>
<path d="M257.415 117.01H256.084V120.582H257.415V117.01Z" fill="#FAFAFA"/>
<path d="M260.076 117.01H258.745V120.582H260.076V117.01Z" fill="#FAFAFA"/>
<path d="M262.728 117.01H261.397V120.582H262.728V117.01Z" fill="#FAFAFA"/>
<path d="M265.39 117.01H264.06V120.582H265.39V117.01Z" fill="#FAFAFA"/>
<path d="M257.415 123H256.084V126.573H257.415V123Z" fill="#FAFAFA"/>
<path d="M260.076 123H258.745V126.573H260.076V123Z" fill="#FAFAFA"/>
<path d="M262.728 123H261.397V126.573H262.728V123Z" fill="#FAFAFA"/>
<path d="M265.39 123H264.06V126.573H265.39V123Z" fill="#FAFAFA"/>
<path d="M257.415 128.991H256.084V132.564H257.415V128.991Z" fill="#FAFAFA"/>
<path d="M260.076 128.991H258.745V132.564H260.076V128.991Z" fill="#FAFAFA"/>
<path d="M262.728 128.991H261.397V132.564H262.728V128.991Z" fill="#FAFAFA"/>
<path d="M265.39 128.991H264.06V132.564H265.39V128.991Z" fill="#FAFAFA"/>
<path d="M257.415 134.982H256.084V138.554H257.415V134.982Z" fill="#FAFAFA"/>
<path d="M260.076 134.982H258.745V138.554H260.076V134.982Z" fill="#FAFAFA"/>
<path d="M262.728 134.982H261.397V138.554H262.728V134.982Z" fill="#FAFAFA"/>
<path d="M265.39 134.982H264.06V138.554H265.39V134.982Z" fill="#FAFAFA"/>
<path d="M134.817 102.638H131.264V105.638H134.817V102.638Z" fill="#E6E6E6"/>
<path d="M141.928 102.638H138.375V105.638H141.928V102.638Z" fill="#E6E6E6"/>
<path d="M149.036 102.638H145.482V105.638H149.036V102.638Z" fill="#E6E6E6"/>
<path d="M156.147 102.638H152.594V105.638H156.147V102.638Z" fill="#E6E6E6"/>
<path d="M134.817 107.662H131.264V110.662H134.817V107.662Z" fill="#E6E6E6"/>
<path d="M141.928 107.662H138.375V110.662H141.928V107.662Z" fill="#E6E6E6"/>
<path d="M149.036 107.662H145.482V110.662H149.036V107.662Z" fill="#E6E6E6"/>
<path d="M156.147 107.662H152.594V110.662H156.147V107.662Z" fill="#E6E6E6"/>
<path d="M134.817 112.687H131.264V115.686H134.817V112.687Z" fill="#E6E6E6"/>
<path d="M141.928 112.687H138.375V115.686H141.928V112.687Z" fill="#E6E6E6"/>
<path d="M149.036 112.687H145.482V115.686H149.036V112.687Z" fill="#E6E6E6"/>
<path d="M156.147 112.687H152.594V115.686H156.147V112.687Z" fill="#E6E6E6"/>
<path d="M134.817 117.715H131.264V120.715H134.817V117.715Z" fill="#E6E6E6"/>
<path d="M141.928 117.715H138.375V120.715H141.928V117.715Z" fill="#E6E6E6"/>
<path d="M149.036 117.715H145.482V120.715H149.036V117.715Z" fill="#E6E6E6"/>
<path d="M156.147 117.715H152.594V120.715H156.147V117.715Z" fill="#E6E6E6"/>
<path d="M134.817 122.735H131.264V125.735H134.817V122.735Z" fill="#E6E6E6"/>
<path d="M141.928 122.735H138.375V125.735H141.928V122.735Z" fill="#E6E6E6"/>
<path d="M149.036 122.735H145.482V125.735H149.036V122.735Z" fill="#E6E6E6"/>
<path d="M156.147 122.735H152.594V125.735H156.147V122.735Z" fill="#E6E6E6"/>
<path d="M134.817 127.759H131.264V130.759H134.817V127.759Z" fill="#E6E6E6"/>
<path d="M141.928 127.759H138.375V130.759H141.928V127.759Z" fill="#E6E6E6"/>
<path d="M149.036 127.759H145.482V130.759H149.036V127.759Z" fill="#E6E6E6"/>
<path d="M156.147 127.759H152.594V130.759H156.147V127.759Z" fill="#E6E6E6"/>
<path d="M134.817 132.784H131.264V135.784H134.817V132.784Z" fill="#E6E6E6"/>
<path d="M141.928 132.784H138.375V135.784H141.928V132.784Z" fill="#E6E6E6"/>
<path d="M149.036 132.784H145.482V135.784H149.036V132.784Z" fill="#E6E6E6"/>
<path d="M156.147 132.784H152.594V135.784H156.147V132.784Z" fill="#E6E6E6"/>
<path d="M308.119 154.653H225.465C224.755 154.652 224.074 154.369 223.571 153.866C223.069 153.362 222.786 152.681 222.785 151.969V31.3914C222.785 31.039 222.854 30.69 222.989 30.3643C223.124 30.0387 223.321 29.7428 223.57 29.4936C223.819 29.2444 224.114 29.0467 224.44 28.9118C224.765 28.7769 225.113 28.7075 225.465 28.7075H308.119C308.471 28.7069 308.82 28.7759 309.146 28.9105C309.472 29.0451 309.768 29.2427 310.017 29.492C310.266 29.7413 310.464 30.0373 310.599 30.3633C310.734 30.6892 310.804 31.0386 310.804 31.3914V151.969C310.802 152.681 310.519 153.364 310.016 153.867C309.512 154.37 308.83 154.653 308.119 154.653ZM225.465 28.822C224.785 28.822 224.132 29.0927 223.651 29.5746C223.17 30.0564 222.899 30.71 222.899 31.3914V151.969C222.899 152.651 223.17 153.304 223.651 153.786C224.132 154.268 224.785 154.538 225.465 154.538H308.119C308.8 154.538 309.453 154.268 309.935 153.786C310.417 153.304 310.688 152.651 310.689 151.969V31.3914C310.688 30.7095 310.417 30.056 309.935 29.5743C309.453 29.0926 308.8 28.822 308.119 28.822H225.465Z" fill="#E0E0E0"/>
<path d="M212.802 154.653H130.139C129.429 154.652 128.748 154.369 128.245 153.866C127.743 153.362 127.46 152.681 127.459 151.969V31.3914C127.459 30.6796 127.741 29.9969 128.244 29.4936C128.747 28.9903 129.428 28.7075 130.139 28.7075H212.802C213.513 28.7075 214.194 28.9903 214.697 29.4936C215.2 29.9969 215.482 30.6796 215.482 31.3914V151.969C215.481 152.681 215.198 153.362 214.696 153.866C214.193 154.369 213.512 154.652 212.802 154.653ZM130.139 28.822C129.462 28.8281 128.816 29.1014 128.34 29.5826C127.863 30.0638 127.596 30.7139 127.596 31.3914V151.969C127.596 152.651 127.866 153.304 128.348 153.786C128.829 154.268 129.481 154.538 130.162 154.538H212.802C213.482 154.538 214.135 154.268 214.616 153.786C215.097 153.304 215.368 152.651 215.368 151.969V31.3914C215.368 30.71 215.097 30.0564 214.616 29.5746C214.135 29.0927 213.482 28.822 212.802 28.822H130.139Z" fill="#E0E0E0"/>
<path d="M117.535 154.653H34.8808C34.1696 154.653 33.4875 154.37 32.9842 153.867C32.4809 153.364 32.1975 152.681 32.1963 151.969V31.3914C32.1963 31.0386 32.2658 30.6892 32.4007 30.3633C32.5357 30.0373 32.7335 29.7413 32.9829 29.492C33.2322 29.2427 33.5282 29.0451 33.8539 28.9105C34.1795 28.7759 34.5285 28.7069 34.8808 28.7075H117.535C118.245 28.7075 118.927 28.9903 119.43 29.4936C119.932 29.9969 120.215 30.6796 120.215 31.3914V151.969C120.213 152.681 119.931 153.362 119.428 153.866C118.926 154.369 118.245 154.652 117.535 154.653ZM34.8808 28.822C34.2 28.822 33.5469 29.0926 33.065 29.5743C32.5832 30.056 32.3118 30.7095 32.3106 31.3914V151.969C32.3118 152.651 32.5832 153.304 33.065 153.786C33.5469 154.268 34.2 154.538 34.8808 154.538H117.535C118.215 154.538 118.868 154.268 119.349 153.786C119.83 153.304 120.1 152.651 120.1 151.969V31.3914C120.1 30.71 119.83 30.0564 119.349 29.5746C118.868 29.0927 118.215 28.822 117.535 28.822H34.8808Z" fill="#E0E0E0"/>
<path d="M343 182.623H0V182.677H343V182.623Z" fill="#E0E0E0"/>
<path d="M324.414 196.079H298.927V196.271H324.414V196.079Z" fill="#EBEBEB"/>
<path d="M233.089 198.167H226.398V198.36H233.089V198.167Z" fill="#EBEBEB"/>
<path d="M51.8204 190.216H18.5859V190.408H51.8204V190.216Z" fill="#EBEBEB"/>
<path d="M63.551 190.216H58.6758V190.408H63.551V190.216Z" fill="#EBEBEB"/>
<path d="M151.469 193.468H79.3887V193.66H151.469V193.468Z" fill="#EBEBEB"/>
<path d="M302.17 200.224C302.17 201.429 251.374 202.404 188.714 202.404C126.055 202.404 75.2637 201.429 75.2637 200.224C75.2637 199.019 126.055 198.044 188.714 198.044C251.374 198.044 302.17 199.019 302.17 200.224Z" fill="#F5F5F5"/>
<path d="M116.249 98.4883H113.167V184.721H116.249V98.4883Z" fill="#263238"/>
<path d="M129.448 68.9976H101.102C100.408 68.9976 99.8447 69.5615 99.8447 70.2571V98.6439C99.8447 99.3395 100.408 99.9034 101.102 99.9034H129.448C130.142 99.9034 130.706 99.3395 130.706 98.6439V70.2571C130.706 69.5615 130.142 68.9976 129.448 68.9976Z" fill="#9D0053"/>
<path d="M119.821 76.0281C120.899 76.4796 121.818 77.2436 122.46 78.2219C123.062 79.2506 123.379 80.4212 123.379 81.6134C123.379 82.8056 123.062 83.9762 122.46 85.0049C121.82 85.9883 120.901 86.7572 119.821 87.2124C118.542 87.7472 117.165 88.0077 115.778 87.9773H111.749V93.139H108.434V75.277H115.778C117.164 75.2399 118.541 75.4958 119.821 76.0281ZM118.907 84.2721C119.261 83.9322 119.542 83.5241 119.735 83.0723C119.928 82.6205 120.027 82.1344 120.027 81.6432C120.027 81.1519 119.928 80.6658 119.735 80.214C119.542 79.7622 119.261 79.3541 118.907 79.0142C118.156 78.4036 117.06 78.0982 115.618 78.0982H111.74V85.1881H115.618C117.054 85.1881 118.15 84.8827 118.907 84.2721Z" fill="white"/>
<path d="M116.249 98.4883H113.167V184.721H116.249V98.4883Z" fill="white"/>
<path d="M129.448 68.9976H101.102C100.408 68.9976 99.8447 69.5615 99.8447 70.2571V98.6439C99.8447 99.3395 100.408 99.9034 101.102 99.9034H129.448C130.142 99.9034 130.706 99.3395 130.706 98.6439V70.2571C130.706 69.5615 130.142 68.9976 129.448 68.9976Z" fill="white"/>
<path d="M71.6777 79.5408C72.839 78.2465 73.6247 76.6587 73.9498 74.9493C74.2748 73.24 74.1268 71.4741 73.5218 69.8429C72.9169 68.2117 71.8779 66.7773 70.5174 65.6949C69.157 64.6125 67.5268 63.9233 65.8034 63.702C64.0799 63.4807 62.3289 63.7356 60.7397 64.4392C59.1505 65.1428 57.7838 66.2683 56.7874 67.6939C55.791 69.1194 55.2029 70.7907 55.0867 72.5269C54.9706 74.2631 55.3308 75.998 56.1284 77.544L55.104 80.2187L58.127 80.1775L58.2367 80.2874C60.1193 81.9703 62.5916 82.8369 65.1113 82.6969C67.631 82.557 69.9925 81.422 71.6777 79.5408Z" fill="#9D0053"/>
<path d="M75.0389 71.1368C75.0105 71.138 74.9828 71.1283 74.9614 71.1095C74.9401 71.0907 74.9269 71.0643 74.9246 71.036C74.7444 69.5081 74.1912 68.0482 73.3137 66.7853C72.4363 65.5224 71.2618 64.4953 69.8939 63.795C69.8672 63.7804 69.8472 63.7561 69.8378 63.7272C69.8284 63.6982 69.8305 63.6668 69.8436 63.6393C69.8573 63.6129 69.8807 63.5929 69.9089 63.5835C69.937 63.5741 69.9678 63.576 69.9945 63.5889C71.3921 64.3108 72.5912 65.3653 73.4867 66.6597C74.3822 67.9542 74.9466 69.4491 75.1304 71.0131C75.133 71.028 75.1324 71.0433 75.1286 71.058C75.1248 71.0726 75.1179 71.0863 75.1083 71.098C75.0988 71.1097 75.0868 71.1193 75.0733 71.126C75.0597 71.1326 75.0449 71.1363 75.0298 71.1368H75.0389Z" fill="#9D0053"/>
<path d="M75.0988 73.967H75.0713C75.0412 73.9594 75.0152 73.9403 74.999 73.9138C74.9827 73.8872 74.9775 73.8554 74.9844 73.825C75.0922 73.3746 75.1046 72.9066 75.021 72.451C75.0184 72.436 75.0188 72.4206 75.0223 72.4057C75.0257 72.3908 75.0321 72.3767 75.0411 72.3643C75.05 72.352 75.0614 72.3415 75.0744 72.3336C75.0875 72.3257 75.102 72.3204 75.1171 72.3182C75.1468 72.3129 75.1774 72.3195 75.2022 72.3367C75.2271 72.3538 75.2441 72.3801 75.2497 72.4098C75.3367 72.8929 75.3227 73.3889 75.2085 73.8663C75.2044 73.8931 75.1913 73.9177 75.1713 73.936C75.1514 73.9543 75.1258 73.9652 75.0988 73.967Z" fill="#9D0053"/>
<path d="M64.3919 77.2418L60.0244 73.9854L61.1586 72.4557L64.0855 74.6404L68.1101 69.8359L69.5644 71.0588L64.3919 77.2418Z" fill="white"/>
<path d="M318.227 178.368L77.7334 184.011V142.818H320.536L318.227 178.368Z" fill="#263238"/>
<path d="M68.4814 153.389V174.278C68.4814 176.459 69.179 178.583 70.472 180.337C71.765 182.092 73.5853 183.386 75.6661 184.029L77.3629 184.547C78.41 184.875 79.5038 185.03 80.6008 185.005L91.8283 184.743C90.6327 180.557 90.411 176.152 91.18 171.867C91.949 167.582 93.6883 163.53 96.2645 160.022C98.8406 156.515 102.185 153.645 106.041 151.634C109.897 149.622 114.162 148.522 118.508 148.419C122.855 148.315 127.167 149.21 131.115 151.035C135.062 152.86 138.539 155.567 141.279 158.947C144.019 162.328 145.95 166.292 146.922 170.536C147.894 174.78 147.882 179.191 146.887 183.429L261.174 180.709C260.991 179.371 260.901 178.023 260.904 176.674C260.876 172.903 261.595 169.164 263.02 165.674C264.445 162.183 266.547 159.011 269.206 156.34C271.864 153.669 275.025 151.554 278.505 150.115C281.986 148.677 285.717 147.945 289.482 147.961C293.248 147.978 296.972 148.742 300.44 150.211C303.908 151.679 307.051 153.822 309.686 156.516C312.321 159.21 314.396 162.4 315.79 165.903C317.185 169.406 317.872 173.151 317.81 176.921C317.81 177.475 317.769 178.025 317.769 178.57C317.916 178.51 318.076 178.451 318.227 178.377L322.132 176.628C324.02 175.774 325.621 174.393 326.745 172.65C327.868 170.908 328.466 168.878 328.466 166.804V124.255C328.467 122.292 327.931 120.366 326.918 118.686C325.905 117.005 324.453 115.634 322.718 114.72L293.343 99.2486C293.079 99.1077 292.862 98.8935 292.717 98.6318C292.572 98.3701 292.506 98.072 292.526 97.7735C292.547 97.4749 292.653 97.1886 292.832 96.949C293.011 96.7093 293.255 96.5266 293.535 96.4228L297.13 95.1312C297.309 95.0705 297.463 94.9505 297.566 94.7908C297.668 94.6312 297.714 94.4414 297.695 94.2525C297.676 94.0636 297.593 93.8868 297.461 93.7511C297.328 93.6153 297.153 93.5287 296.965 93.5053C283.007 91.5542 228.722 84.4461 200.184 87.9406C167.256 91.9756 135.7 120.582 135.7 120.582C111.462 119.666 88.8648 128.121 79.1327 132.357C77.5783 133.036 76.1829 134.033 75.0361 135.284C73.8893 136.535 73.0166 138.012 72.474 139.621L69.14 149.505C68.7147 150.756 68.4923 152.067 68.4814 153.389Z" fill="#9D0053"/>
<path d="M261.207 180.7C261.038 179.444 260.955 178.179 260.96 176.912C260.96 176.266 260.96 175.63 261.019 174.993L240.352 166.524C239.142 166.033 237.837 165.82 236.533 165.902L164.641 170.628C163.466 170.697 162.318 171.009 161.27 171.544L147.614 178.579C147.518 180.205 147.285 181.82 146.919 183.406L261.207 180.7Z" fill="#263238"/>
<path d="M328.476 166.794V165.709L316.786 169.291C317.469 171.773 317.814 174.337 317.811 176.912C317.811 177.466 317.769 178.015 317.769 178.56C317.916 178.501 318.076 178.441 318.227 178.368L322.142 176.619C324.029 175.765 325.631 174.384 326.754 172.641C327.878 170.899 328.475 168.869 328.476 166.794Z" fill="#263238"/>
<path d="M71.8018 181.78C72.9181 182.812 74.2511 183.581 75.7028 184.029L77.3995 184.547C78.4467 184.875 79.5404 185.03 80.6374 185.005L91.8695 184.744C91.4635 183.322 91.1699 181.87 90.9915 180.402L71.8018 181.78Z" fill="#263238"/>
<path d="M289.433 145.74C285.02 145.736 280.655 146.672 276.631 148.487C272.607 150.302 269.014 152.954 266.092 156.267C263.171 159.58 260.987 163.478 259.685 167.702C258.384 171.925 257.995 176.378 258.545 180.763L261.243 180.699C260.702 176.822 260.964 172.874 262.014 169.102C263.064 165.33 264.879 161.816 267.345 158.778C269.812 155.74 272.877 153.243 276.349 151.444C279.822 149.645 283.627 148.582 287.528 148.321C291.43 148.06 295.342 148.607 299.023 149.928C302.704 151.249 306.073 153.315 308.921 155.998C311.769 158.68 314.034 161.922 315.575 165.52C317.117 169.118 317.901 172.996 317.879 176.912C317.879 177.466 317.834 178.015 317.834 178.56C317.985 178.501 318.14 178.441 318.291 178.368L320.536 177.347V176.889C320.528 168.623 317.245 160.699 311.409 154.855C305.572 149.011 297.659 145.725 289.406 145.717L289.433 145.74Z" fill="#263238"/>
<path d="M119.227 145.74C114.468 145.739 109.772 146.83 105.5 148.93C101.228 151.031 97.4938 154.084 94.5844 157.856C91.6751 161.627 89.6681 166.017 88.7178 170.687C87.7674 175.357 87.899 180.183 89.1024 184.794L91.8464 184.734C90.6508 180.548 90.429 176.143 91.198 171.858C91.967 167.572 93.7064 163.52 96.2825 160.013C98.8587 156.506 102.203 153.636 106.059 151.625C109.915 149.613 114.18 148.513 118.527 148.41C122.873 148.306 127.185 149.201 131.133 151.026C135.08 152.851 138.557 155.558 141.297 158.938C144.037 162.319 145.968 166.283 146.94 170.527C147.912 174.771 147.9 179.181 146.905 183.42L149.649 183.351C150.607 178.811 150.54 174.114 149.455 169.603C148.369 165.092 146.291 160.881 143.373 157.277C140.454 153.673 136.769 150.767 132.586 148.771C128.403 146.775 123.828 145.74 119.195 145.74H119.227Z" fill="#263238"/>
<path d="M146.315 121.773C146.043 122.016 145.837 122.324 145.717 122.669C145.597 123.014 145.567 123.383 145.63 123.743C145.692 124.103 145.846 124.44 146.075 124.724C146.305 125.008 146.603 125.228 146.942 125.364L158.832 128.698C159.88 128.995 160.976 129.078 162.056 128.941L250.139 118.013C252.349 117.705 254.365 116.585 255.796 114.871L267.353 101.387C267.746 100.923 267.986 100.349 268.043 99.7431C268.204 98.2088 267.243 96.8257 265.899 96.6516C244.806 93.8532 218.135 91.3068 201.296 93.3678C179.216 96.0608 156.994 112.668 146.315 121.773Z" fill="#9D0053"/>
<path opacity="0.8" d="M146.713 121.773C146.44 122.016 146.234 122.324 146.114 122.669C145.994 123.014 145.964 123.383 146.027 123.743C146.09 124.103 146.243 124.44 146.473 124.724C146.703 125.008 147.001 125.228 147.339 125.364L159.23 128.698C160.27 128.993 161.359 129.075 162.431 128.941L184.882 127.402L248.547 123.032C250.692 122.758 254.003 118.814 256.349 115.613L267.727 101.387C268.123 100.924 268.366 100.35 268.423 99.7431C268.578 98.2088 267.618 96.8257 266.278 96.6516C245.181 93.8532 218.514 91.3068 201.675 93.3678C179.613 96.0608 157.391 112.668 146.713 121.773Z" fill="white"/>
<g opacity="0.3">
<path d="M204.255 130.178C203.989 130.078 203.772 129.879 203.65 129.623C203.528 129.367 203.511 129.073 203.601 128.804C203.724 128.462 203.946 128.164 204.238 127.949C204.53 127.734 204.88 127.61 205.243 127.594L215.725 127.136C215.866 127.129 216.007 127.149 216.141 127.196C216.413 127.295 216.636 127.498 216.76 127.76C216.884 128.023 216.9 128.323 216.804 128.597C216.68 128.941 216.457 129.239 216.163 129.455C215.869 129.67 215.517 129.793 215.153 129.807L204.671 130.242C204.53 130.246 204.388 130.224 204.255 130.178Z" fill="black"/>
</g>
<path d="M282.216 100.096C281.771 100.493 281.501 101.051 281.466 101.647C281.431 102.243 281.633 102.828 282.029 103.275L284.512 105.981C284.799 106.284 285.163 106.504 285.564 106.618L316.018 115.077C316.547 115.22 317.093 115.292 317.641 115.293H323.692C323.376 115.086 323.056 114.89 322.718 114.711L293.343 99.226C292.987 99.0488 292.716 98.7377 292.59 98.3608C292.463 97.9839 292.49 97.5719 292.666 97.2153L283.126 99.6061C282.789 99.6962 282.477 99.864 282.216 100.096Z" fill="#9D0053"/>
<path d="M92.5827 136.328L82.192 135.192L76.2238 137.638C75.6042 137.892 75.0526 138.287 74.6134 138.793C74.1742 139.299 73.8596 139.901 73.6948 140.551C73.4984 141.312 73.6085 142.119 74.0012 142.8L74.1064 142.978C74.4325 143.541 74.9184 143.994 75.5023 144.28C76.0862 144.565 76.7418 144.67 77.3855 144.581L83.3765 143.757C83.9604 143.675 84.5141 143.446 84.9864 143.093L91.8967 137.858L92.5827 136.328Z" fill="white"/>
<path d="M135.746 120.56L137.402 121.018C138.035 121.198 138.703 121.22 139.346 121.081C139.99 120.942 140.59 120.647 141.092 120.221C150.724 112.064 167.467 99.5465 185.531 93.7161C185.613 93.6899 185.681 93.6344 185.723 93.5604C185.766 93.482 185.776 93.3899 185.751 93.3041C185.726 93.2183 185.669 93.1459 185.591 93.1024L183.345 91.9482C157.282 101.007 135.746 120.56 135.746 120.56Z" fill="#9D0053"/>
<path opacity="0.8" d="M135.746 120.56L137.402 121.018C138.035 121.198 138.703 121.22 139.346 121.081C139.99 120.942 140.59 120.647 141.092 120.221C150.724 112.064 167.467 99.5465 185.531 93.7161C185.613 93.6899 185.681 93.6344 185.723 93.5604C185.766 93.482 185.776 93.3899 185.751 93.3041C185.726 93.2183 185.669 93.1459 185.591 93.1024L183.345 91.9482C157.282 101.007 135.746 120.56 135.746 120.56Z" fill="white"/>
<path opacity="0.2" d="M234.493 131.574L146.928 137.858L148.574 148.676C149.077 151.989 150.303 155.151 152.164 157.937L159.482 168.892L234.224 158.77L269.557 131.588L234.493 131.574Z" fill="white"/>
<path d="M289.405 200.65C302.499 200.65 313.114 190.02 313.114 176.907C313.114 163.795 302.499 153.165 289.405 153.165C276.312 153.165 265.697 163.795 265.697 176.907C265.697 190.02 276.312 200.65 289.405 200.65Z" fill="#263238"/>
<path opacity="0.4" d="M289.405 191.463C297.432 191.463 303.939 184.946 303.939 176.907C303.939 168.869 297.432 162.352 289.405 162.352C281.378 162.352 274.871 168.869 274.871 176.907C274.871 184.946 281.378 191.463 289.405 191.463Z" fill="white"/>
<g opacity="0.3">
<path d="M289.41 163.817H289.406C288.764 163.817 288.244 164.338 288.244 164.981V172.442C288.244 173.084 288.764 173.605 289.406 173.605H289.41C290.052 173.605 290.572 173.084 290.572 172.442V164.981C290.572 164.338 290.052 163.817 289.41 163.817Z" fill="white"/>
</g>
<g opacity="0.3">
<path d="M289.41 180.218H289.406C288.764 180.218 288.244 180.739 288.244 181.382V188.842C288.244 189.485 288.764 190.006 289.406 190.006H289.41C290.052 190.006 290.572 189.485 290.572 188.842V181.382C290.572 180.739 290.052 180.218 289.41 180.218Z" fill="white"/>
</g>
<g opacity="0.3">
<path d="M293.846 175.689C293.713 175.763 293.565 175.81 293.413 175.828C293.261 175.845 293.107 175.832 292.96 175.789C292.813 175.747 292.676 175.675 292.556 175.58C292.437 175.484 292.338 175.365 292.264 175.231C292.111 174.964 292.07 174.648 292.15 174.351C292.23 174.054 292.424 173.8 292.689 173.646L299.138 169.895C299.407 169.741 299.725 169.699 300.025 169.78C300.324 169.861 300.579 170.057 300.734 170.326C300.886 170.594 300.927 170.911 300.846 171.209C300.766 171.507 300.571 171.761 300.304 171.915L293.86 175.661L293.846 175.689Z" fill="white"/>
</g>
<g opacity="0.3">
<path d="M279.664 183.855C279.398 184.008 279.082 184.049 278.785 183.969C278.489 183.889 278.236 183.695 278.082 183.429C278.003 183.296 277.952 183.148 277.931 182.995C277.911 182.841 277.921 182.685 277.961 182.536C278.002 182.386 278.072 182.247 278.167 182.125C278.263 182.003 278.381 181.901 278.516 181.826L284.965 178.075C285.097 177.998 285.242 177.948 285.393 177.927C285.545 177.906 285.698 177.916 285.846 177.955C285.993 177.994 286.132 178.062 286.253 178.155C286.374 178.248 286.476 178.364 286.552 178.497C286.629 178.629 286.679 178.775 286.7 178.927C286.721 179.079 286.711 179.233 286.672 179.381C286.633 179.529 286.565 179.668 286.472 179.79C286.379 179.911 286.263 180.014 286.131 180.09L279.678 183.841L279.664 183.855Z" fill="white"/>
</g>
<g opacity="0.3">
<path d="M299.138 183.887L292.694 180.136C292.426 179.98 292.231 179.724 292.152 179.425C292.072 179.125 292.114 178.806 292.269 178.538C292.426 178.271 292.682 178.078 292.981 178C293.28 177.922 293.598 177.965 293.865 178.121L300.309 181.867C300.575 182.022 300.77 182.275 300.851 182.573C300.931 182.871 300.891 183.188 300.738 183.456C300.662 183.59 300.559 183.707 300.437 183.801C300.315 183.895 300.176 183.964 300.027 184.004C299.879 184.044 299.723 184.054 299.571 184.034C299.418 184.014 299.271 183.964 299.138 183.887Z" fill="white"/>
</g>
<g opacity="0.3">
<path d="M286.542 175.258C286.466 175.391 286.365 175.507 286.243 175.6C286.122 175.693 285.984 175.761 285.836 175.8C285.689 175.839 285.535 175.849 285.384 175.828C285.233 175.807 285.087 175.757 284.955 175.68L278.516 171.933C278.384 171.857 278.269 171.756 278.176 171.635C278.083 171.515 278.015 171.377 277.975 171.229C277.936 171.082 277.926 170.929 277.945 170.778C277.965 170.626 278.015 170.481 278.091 170.349C278.246 170.082 278.499 169.888 278.797 169.808C279.094 169.729 279.411 169.77 279.678 169.923L286.131 173.674C286.263 173.75 286.378 173.853 286.47 173.974C286.563 174.096 286.63 174.234 286.669 174.382C286.707 174.529 286.717 174.683 286.696 174.835C286.675 174.986 286.624 175.131 286.547 175.263L286.542 175.258Z" fill="white"/>
</g>
<path d="M287.458 176.903C287.458 176.647 287.508 176.393 287.606 176.157C287.704 175.92 287.848 175.705 288.029 175.525C288.21 175.344 288.424 175.2 288.661 175.103C288.897 175.005 289.15 174.955 289.406 174.956C289.792 174.956 290.17 175.071 290.491 175.286C290.812 175.501 291.062 175.806 291.21 176.163C291.358 176.521 291.397 176.914 291.321 177.293C291.246 177.673 291.06 178.021 290.787 178.295C290.514 178.568 290.166 178.754 289.787 178.83C289.408 178.905 289.015 178.867 288.659 178.719C288.302 178.57 287.997 178.32 287.782 177.998C287.568 177.677 287.453 177.299 287.453 176.912L287.458 176.903Z" fill="#263238"/>
<path d="M119.227 200.654C132.32 200.654 142.935 190.024 142.935 176.912C142.935 163.799 132.32 153.169 119.227 153.169C106.133 153.169 95.5186 163.799 95.5186 176.912C95.5186 190.024 106.133 200.654 119.227 200.654Z" fill="#263238"/>
<path opacity="0.4" d="M119.227 191.467C127.254 191.467 133.761 184.95 133.761 176.912C133.761 168.873 127.254 162.356 119.227 162.356C111.2 162.356 104.693 168.873 104.693 176.912C104.693 184.95 111.2 191.467 119.227 191.467Z" fill="white"/>
<g opacity="0.3">
<path d="M119.227 163.817H119.222C118.581 163.817 118.061 164.338 118.061 164.981V172.442C118.061 173.084 118.581 173.605 119.222 173.605H119.227C119.868 173.605 120.388 173.084 120.388 172.442V164.981C120.388 164.338 119.868 163.817 119.227 163.817Z" fill="white"/>
</g>
<g opacity="0.3">
<path d="M119.227 180.218H119.222C118.581 180.218 118.061 180.739 118.061 181.382V188.842C118.061 189.485 118.581 190.006 119.222 190.006H119.227C119.868 190.006 120.388 189.485 120.388 188.842V181.382C120.388 180.739 119.868 180.218 119.227 180.218Z" fill="white"/>
</g>
<g opacity="0.3">
<path d="M123.659 175.689C123.526 175.763 123.38 175.81 123.229 175.827C123.078 175.844 122.925 175.831 122.779 175.788C122.633 175.745 122.497 175.674 122.379 175.579C122.261 175.483 122.163 175.365 122.09 175.231C122.013 175.099 121.962 174.953 121.942 174.802C121.921 174.651 121.93 174.497 121.969 174.349C122.007 174.202 122.075 174.063 122.167 173.942C122.259 173.82 122.375 173.718 122.506 173.641L128.969 169.918C129.101 169.842 129.247 169.792 129.399 169.773C129.55 169.753 129.704 169.764 129.851 169.804C129.999 169.844 130.137 169.912 130.258 170.006C130.378 170.099 130.48 170.216 130.556 170.348C130.632 170.481 130.681 170.627 130.7 170.779C130.72 170.931 130.71 171.085 130.67 171.232C130.63 171.38 130.561 171.518 130.468 171.639C130.374 171.76 130.258 171.862 130.126 171.938L123.682 175.684L123.659 175.689Z" fill="white"/>
</g>
<g opacity="0.3">
<path d="M107.899 183.429C107.823 183.297 107.774 183.151 107.754 183C107.734 182.849 107.744 182.696 107.784 182.548C107.823 182.401 107.891 182.263 107.984 182.142C108.077 182.022 108.193 181.92 108.325 181.844L114.773 178.093C114.906 178.016 115.052 177.965 115.204 177.945C115.356 177.924 115.51 177.934 115.659 177.973C115.807 178.012 115.946 178.08 116.068 178.173C116.19 178.266 116.292 178.382 116.369 178.515C116.523 178.783 116.564 179.102 116.484 179.401C116.403 179.7 116.207 179.954 115.939 180.109L109.496 183.86C109.363 183.937 109.216 183.987 109.064 184.007C108.911 184.027 108.757 184.016 108.608 183.976C108.46 183.936 108.321 183.868 108.199 183.774C108.078 183.68 107.976 183.563 107.899 183.429Z" fill="white"/>
</g>
<g opacity="0.3">
<path d="M130.546 183.461C130.392 183.727 130.139 183.921 129.843 184.001C129.546 184.081 129.23 184.04 128.964 183.887L122.506 180.136C122.24 179.978 122.047 179.722 121.97 179.423C121.892 179.123 121.935 178.805 122.09 178.538C122.167 178.406 122.269 178.29 122.39 178.198C122.511 178.105 122.65 178.038 122.797 177.999C122.945 177.96 123.098 177.951 123.249 177.972C123.4 177.993 123.546 178.043 123.677 178.121L130.121 181.867C130.387 182.021 130.58 182.275 130.66 182.572C130.74 182.869 130.699 183.185 130.546 183.452V183.461Z" fill="white"/>
</g>
<g opacity="0.3">
<path d="M116.36 175.267C116.283 175.399 116.181 175.514 116.06 175.606C115.938 175.698 115.8 175.765 115.652 175.804C115.505 175.842 115.351 175.851 115.2 175.829C115.05 175.808 114.904 175.757 114.773 175.68L108.325 171.933C108.193 171.857 108.077 171.756 107.984 171.635C107.891 171.514 107.823 171.376 107.784 171.229C107.744 171.082 107.734 170.929 107.754 170.777C107.774 170.626 107.823 170.481 107.899 170.349C108.055 170.08 108.31 169.884 108.609 169.803C108.908 169.722 109.227 169.764 109.496 169.918L115.939 173.669C116.205 173.824 116.399 174.078 116.479 174.376C116.559 174.674 116.518 174.991 116.365 175.258L116.36 175.267Z" fill="white"/>
</g>
<path d="M119.227 174.956C119.613 174.956 119.991 175.071 120.312 175.286C120.633 175.501 120.884 175.806 121.031 176.163C121.179 176.521 121.218 176.914 121.143 177.293C121.067 177.673 120.881 178.021 120.608 178.295C120.335 178.568 119.987 178.754 119.608 178.83C119.229 178.905 118.837 178.867 118.48 178.719C118.123 178.57 117.818 178.32 117.604 177.998C117.389 177.677 117.274 177.299 117.274 176.912C117.276 176.393 117.482 175.897 117.848 175.53C118.214 175.164 118.71 174.957 119.227 174.956Z" fill="#263238"/>
<path opacity="0.3" d="M325.987 132.124C326.175 132.065 326.35 131.97 326.501 131.844C326.652 131.718 326.777 131.564 326.868 131.389C326.959 131.215 327.015 131.024 327.033 130.828C327.05 130.632 327.029 130.434 326.971 130.246C326.696 125.245 325.635 120.797 322.576 117.738C322.476 117.411 322.269 117.128 321.987 116.935C321.705 116.743 321.365 116.653 321.025 116.68L302.961 118.388C302.686 118.417 302.424 118.522 302.205 118.691C301.986 118.859 301.818 119.085 301.719 119.344C301.621 119.602 301.596 119.883 301.647 120.155C301.698 120.427 301.824 120.68 302.009 120.885L307.182 126.472C307.361 126.665 307.589 126.807 307.84 126.884L325.137 132.133C325.415 132.21 325.71 132.207 325.987 132.124Z" fill="black"/>
<path d="M145.647 122.909C145.517 123.405 145.578 123.932 145.818 124.385C146.057 124.838 146.458 125.184 146.941 125.355L158.832 128.689C159.848 129.017 160.922 129.126 161.983 129.009L165.82 128.712L162.353 109.92C154.208 115.279 153.664 115.526 146.347 121.764C145.993 122.057 145.746 122.46 145.647 122.909Z" fill="#263238"/>
<path d="M223.037 92.7495L215.573 125.341L225.337 124.635L229.792 93.0564C227.517 92.922 225.266 92.8197 223.037 92.7495Z" fill="#263238"/>
<path d="M254.013 118.544L267.733 101.387C268.138 100.92 268.385 100.337 268.442 99.7202C268.597 98.1859 267.632 96.8027 266.288 96.6378C263.48 96.2531 260.489 95.8867 257.502 95.5249" fill="#263238"/>
<path d="M156.449 126.22C155.885 126.228 155.325 126.123 154.801 125.914C154.278 125.704 153.8 125.393 153.397 124.998C152.993 124.603 152.671 124.132 152.45 123.613C152.228 123.093 152.111 122.535 152.105 121.97C152.093 120.989 152.417 120.032 153.021 119.26C153.626 118.487 154.475 117.944 155.43 117.72L161.155 116.378L162.614 125.996L156.564 126.229L156.449 126.22Z" fill="#9D0053"/>
<path opacity="0.3" d="M160.936 126.055L162.614 125.987L161.155 116.378L159.522 116.763L160.936 126.055Z" fill="black"/>
<path opacity="0.6" d="M217.691 167.257H217.668C217.653 167.254 217.639 167.249 217.627 167.241C217.615 167.232 217.604 167.222 217.596 167.209C217.588 167.197 217.582 167.183 217.58 167.168C217.577 167.154 217.578 167.139 217.581 167.124C217.645 166.827 223.901 137.409 224.702 133.397C225.008 131.863 225.122 128.918 225.031 124.645C225.031 124.614 225.043 124.585 225.064 124.564C225.086 124.542 225.115 124.53 225.145 124.53C225.175 124.53 225.203 124.542 225.225 124.562C225.246 124.583 225.258 124.611 225.26 124.64C225.351 128.932 225.26 131.89 224.926 133.443C224.125 137.455 217.864 166.877 217.805 167.17C217.798 167.195 217.783 167.217 217.762 167.233C217.742 167.249 217.717 167.257 217.691 167.257Z" fill="black"/>
<path opacity="0.6" d="M161.279 171.672C161.26 171.672 161.241 171.667 161.224 171.658C161.208 171.65 161.193 171.637 161.182 171.622C161.105 171.502 153.028 159.535 150.252 154.524C147.403 149.372 145.555 124.681 145.478 123.632C145.476 123.602 145.486 123.573 145.506 123.55C145.525 123.527 145.553 123.512 145.583 123.509C145.598 123.507 145.614 123.509 145.628 123.514C145.643 123.519 145.656 123.527 145.668 123.537C145.68 123.547 145.689 123.56 145.695 123.574C145.702 123.588 145.706 123.603 145.706 123.619C145.706 123.87 147.627 149.303 150.453 154.415C153.197 159.411 161.292 171.361 161.375 171.493C161.383 171.506 161.389 171.52 161.392 171.535C161.395 171.55 161.395 171.565 161.392 171.58C161.389 171.595 161.383 171.609 161.375 171.622C161.366 171.635 161.355 171.645 161.343 171.654C161.324 171.667 161.301 171.673 161.279 171.672Z" fill="black"/>
<path opacity="0.6" d="M82.1919 135.307C82.1694 135.308 82.1473 135.302 82.1285 135.289C82.1097 135.277 82.0951 135.259 82.0867 135.238C82.076 135.21 82.0766 135.178 82.0885 135.15C82.1005 135.122 82.1227 135.099 82.1507 135.087C88.343 132.55 108.219 127.759 112.856 127.022C118.724 126.078 138.773 121.123 138.974 121.068C139.005 121.061 139.036 121.066 139.063 121.082C139.089 121.099 139.109 121.125 139.116 121.155C139.12 121.17 139.12 121.185 139.117 121.2C139.115 121.215 139.109 121.229 139.101 121.242C139.093 121.255 139.083 121.266 139.07 121.274C139.058 121.283 139.044 121.289 139.029 121.292C138.828 121.343 118.769 126.298 112.893 127.246C108.365 127.975 88.2744 132.825 82.2513 135.303L82.1919 135.307Z" fill="black"/>
<path opacity="0.8" d="M282.216 100.096C281.771 100.493 281.501 101.051 281.466 101.647C281.431 102.243 281.633 102.828 282.029 103.275L284.512 105.981C284.799 106.284 285.163 106.504 285.564 106.618L316.018 115.077C316.547 115.22 317.093 115.292 317.641 115.293H323.692C323.376 115.086 323.056 114.89 322.718 114.711L293.343 99.226C292.987 99.0488 292.716 98.7377 292.59 98.3608C292.463 97.9839 292.49 97.5719 292.666 97.2153L283.126 99.6061C282.789 99.6962 282.477 99.864 282.216 100.096Z" fill="white"/>
<path d="M206.363 118.622C206.363 118.622 205.975 116.121 207.369 111.752L207.141 111.633C207.333 111.024 207.539 110.46 207.726 109.97L201.616 113.524C201.717 114.935 201.136 117.646 200.807 118.782C200.807 118.782 199.988 120.843 202.75 121.008C204.772 121.113 206.363 118.622 206.363 118.622Z" fill="#B97964"/>
<path opacity="0.2" d="M201.46 115.485L204.94 114.798C204.597 115.865 203.609 117.12 201.199 117.157C201.33 116.607 201.418 116.048 201.46 115.485Z" fill="black"/>
<path d="M207.859 107.03C207.347 110.836 207.136 112.984 205.064 114.816C201.95 117.528 197.464 115.489 196.832 111.61C196.261 108.106 197.189 102.45 201.04 101.259C201.89 100.993 202.793 100.945 203.666 101.122C204.539 101.298 205.353 101.692 206.033 102.268C206.713 102.843 207.237 103.582 207.557 104.414C207.876 105.247 207.98 106.147 207.859 107.03Z" fill="#B97964"/>
<path d="M208.673 102.469C208.302 100.325 203.034 99.9221 201.484 100.893C201.25 101.035 204.26 102.835 204.077 102.748L205.508 103.366C205.737 103.33 206.167 103.627 206.345 104.351C206.345 104.351 205.755 110.2 207.292 112.013C208.664 111.459 208.915 109.142 209.437 107.791C210.21 105.798 211.179 102.812 208.673 102.469Z" fill="#263238"/>
<path d="M209.134 110.328C208.955 110.771 208.689 111.174 208.352 111.513C208.015 111.852 207.614 112.12 207.172 112.302C205.992 112.787 205.654 111.509 205.85 110.314C206.024 109.238 206.436 107.937 207.68 107.964C208.924 107.992 209.564 109.224 209.134 110.328Z" fill="#B97964"/>
<path d="M202.315 107.74C202.288 108.129 202.059 108.432 201.803 108.409C201.547 108.386 201.346 108.056 201.391 107.662C201.437 107.268 201.647 106.971 201.904 106.993C202.16 107.016 202.343 107.346 202.315 107.74Z" fill="#263238"/>
<path d="M198.483 107.538C198.456 107.928 198.227 108.23 197.971 108.207C197.715 108.184 197.514 107.854 197.559 107.46C197.605 107.067 197.82 106.769 198.071 106.792C198.323 106.815 198.51 107.172 198.483 107.538Z" fill="#263238"/>
<path d="M199.74 107.41C199.74 107.41 198.368 109.242 197.911 110.03C198.419 110.561 199.375 110.401 199.375 110.401L199.74 107.41Z" fill="#A24E3F"/>
<path d="M203.404 105.963C203.373 105.974 203.34 105.976 203.308 105.97C203.275 105.963 203.246 105.948 203.221 105.926C203.054 105.767 202.852 105.649 202.631 105.581C202.411 105.514 202.177 105.499 201.95 105.537C201.902 105.548 201.853 105.541 201.811 105.516C201.769 105.491 201.739 105.451 201.726 105.404C201.72 105.381 201.718 105.357 201.722 105.333C201.725 105.309 201.733 105.287 201.745 105.266C201.758 105.246 201.774 105.228 201.794 105.214C201.813 105.2 201.835 105.19 201.858 105.184C202.144 105.127 202.439 105.139 202.719 105.218C202.999 105.298 203.256 105.443 203.468 105.642C203.502 105.677 203.52 105.723 203.52 105.771C203.52 105.819 203.502 105.865 203.468 105.899C203.453 105.926 203.431 105.948 203.404 105.963Z" fill="#263238"/>
<path d="M200.71 111.917H200.55C200.504 111.912 200.462 111.89 200.432 111.855C200.403 111.82 200.387 111.775 200.39 111.729C200.396 111.684 200.418 111.643 200.453 111.614C200.488 111.585 200.532 111.571 200.577 111.573C200.864 111.579 201.149 111.527 201.415 111.419C201.681 111.311 201.922 111.15 202.123 110.946C202.139 110.93 202.158 110.917 202.179 110.908C202.199 110.899 202.222 110.895 202.244 110.895C202.267 110.895 202.289 110.899 202.31 110.908C202.331 110.917 202.35 110.93 202.366 110.946C202.394 110.981 202.408 111.026 202.404 111.072C202.399 111.117 202.378 111.159 202.343 111.188C201.904 111.621 201.324 111.88 200.71 111.917Z" fill="#263238"/>
<path opacity="0.2" d="M206.514 110.341C206.499 110.339 206.485 110.334 206.472 110.326C206.459 110.318 206.448 110.307 206.439 110.295C206.431 110.282 206.425 110.268 206.422 110.253C206.419 110.239 206.419 110.223 206.423 110.208C206.489 109.86 206.647 109.536 206.88 109.27C207.071 109.036 207.335 108.874 207.63 108.812C207.789 108.78 207.954 108.798 208.103 108.861C208.252 108.925 208.379 109.032 208.467 109.169C208.482 109.195 208.486 109.226 208.478 109.255C208.471 109.284 208.452 109.309 208.426 109.325C208.412 109.332 208.398 109.336 208.383 109.338C208.368 109.34 208.353 109.338 208.338 109.334C208.324 109.33 208.311 109.323 208.299 109.313C208.287 109.304 208.277 109.292 208.27 109.279C208.206 109.171 208.109 109.087 207.994 109.038C207.88 108.988 207.752 108.976 207.63 109.004C207.386 109.062 207.168 109.201 207.013 109.398C206.808 109.635 206.67 109.923 206.615 110.231C206.613 110.258 206.602 110.284 206.584 110.304C206.565 110.324 206.541 110.337 206.514 110.341Z" fill="black"/>
<path d="M196.91 105.766C196.876 105.755 196.846 105.734 196.823 105.706C196.806 105.689 196.792 105.669 196.783 105.646C196.773 105.624 196.769 105.6 196.769 105.576C196.769 105.551 196.773 105.527 196.783 105.505C196.792 105.483 196.806 105.462 196.823 105.445C197.041 105.254 197.301 105.118 197.581 105.047C197.862 104.976 198.155 104.973 198.438 105.038C198.484 105.052 198.522 105.084 198.545 105.127C198.568 105.17 198.574 105.22 198.561 105.267C198.555 105.29 198.545 105.312 198.53 105.331C198.516 105.35 198.497 105.366 198.476 105.378C198.455 105.389 198.432 105.396 198.408 105.399C198.384 105.401 198.36 105.398 198.337 105.39C198.113 105.339 197.879 105.343 197.657 105.402C197.435 105.462 197.23 105.574 197.061 105.729C197.04 105.745 197.015 105.757 196.989 105.763C196.963 105.77 196.936 105.771 196.91 105.766Z" fill="#263238"/>
<path d="M209.578 100.866C209.34 99.9908 208.243 99.7435 207.387 99.8718C207.488 98.8229 206.157 98.1451 205.302 98.1268C204.865 98.0703 204.423 98.1834 204.067 98.4428C204.136 98.4428 203.825 97.9115 203.61 97.6871C203.248 97.2831 202.774 96.997 202.248 96.8655C201.722 96.7341 201.169 96.7634 200.66 96.9497C200.15 97.167 199.712 97.5237 199.396 97.979C199.08 98.4343 198.898 98.9697 198.872 99.5237C198.74 99.382 198.582 99.2678 198.406 99.1876C198.231 99.1074 198.041 99.0628 197.848 99.0564C197.655 99.05 197.463 99.0819 197.282 99.1503C197.101 99.2188 196.936 99.3223 196.796 99.455C196.53 99.7576 196.383 100.147 196.383 100.55C196.383 100.952 196.53 101.342 196.796 101.644C196.628 101.654 196.464 101.697 196.313 101.77C196.162 101.844 196.027 101.946 195.915 102.072C195.69 102.326 195.575 102.659 195.595 102.998C195.615 103.337 195.769 103.654 196.022 103.879C196.276 104.104 196.608 104.22 196.946 104.2C196.946 104.974 196.974 105.945 196.969 106.723L198.158 103.934C198.698 103.769 198.812 103.536 198.954 102.959C199.306 103.71 199.919 103.682 200.715 103.696C201.12 103.693 201.517 103.577 201.861 103.362C202.205 103.147 202.482 102.841 202.663 102.478C202.828 102.871 203.096 103.212 203.44 103.464C203.783 103.716 204.188 103.871 204.611 103.911C205.037 103.917 205.449 103.762 205.767 103.478C206.084 103.194 206.284 102.801 206.326 102.377C206.552 102.75 206.903 103.03 207.316 103.166C207.73 103.303 208.178 103.288 208.581 103.124C208.975 102.913 209.288 102.576 209.469 102.167C209.649 101.758 209.688 101.299 209.578 100.866Z" fill="#263238"/>
<path d="M200.455 118.027L185.866 122.909L172.447 122.222L171.931 126.408C171.931 126.408 175.937 127.251 179.843 127.782L192.392 126.921C196.576 125.927 200.706 124.718 200.706 124.718L200.455 118.027Z" fill="#B97964"/>
<path d="M197.376 126.798L198.881 118.045L204.556 117.056C204.808 117.019 209.418 116.639 210.803 121.705L211.114 125.735L197.376 126.798Z" fill="#263238"/>
<path d="M201.991 126.381C201.675 126.381 192.639 127.255 192.639 127.255L191.006 120.788C193.578 119.726 196.207 118.808 198.881 118.04C203.084 116.905 207.026 116.552 207.932 118.498C209.656 122.245 201.991 126.381 201.991 126.381Z" fill="#263238"/>
<path d="M168.042 120.308C167.786 120.463 164.745 123.614 164.745 123.614L165.335 127.512L169.158 123.559L168.042 120.308Z" fill="#263238"/>
<path d="M172.621 128.446C172.296 128.605 171.922 128.63 171.579 128.514C171.237 128.398 170.953 128.152 170.791 127.828L164.723 115.522C164.564 115.196 164.539 114.821 164.655 114.478C164.771 114.135 165.017 113.852 165.34 113.69C165.665 113.53 166.039 113.506 166.382 113.622C166.724 113.738 167.007 113.984 167.169 114.308L173.234 126.619C173.391 126.943 173.415 127.316 173.301 127.658C173.186 128 172.942 128.283 172.621 128.446Z" fill="#263238"/>
<path d="M176.988 122.556L171.994 121.887L170.549 120.138C170.549 120.138 168.011 119.909 167.467 120.362C166.922 120.816 166.374 122.258 166.374 122.258C166.374 122.258 165.715 123.44 166.831 124.063C166.831 124.063 166.113 125.116 167.394 125.858C167.394 125.858 166.451 126.39 167.805 126.948C168.323 127.154 168.878 127.255 169.435 127.244C169.993 127.233 170.542 127.111 171.052 126.884C171.8 126.701 172.572 126.642 173.339 126.71L177.88 127.512L176.988 122.556Z" fill="#B97964"/>
<path d="M254.013 87.3223C249.659 86.7178 244.212 86.2323 238.678 85.9483C238.654 85.9524 238.628 85.951 238.604 85.9443C238.58 85.9375 238.557 85.9256 238.538 85.9092C238.519 85.8929 238.503 85.8726 238.493 85.8497C238.482 85.8267 238.477 85.8018 238.477 85.7766C238.477 85.7513 238.482 85.7264 238.493 85.7035C238.503 85.6806 238.519 85.6603 238.538 85.6439C238.557 85.6276 238.58 85.6156 238.604 85.6089C238.628 85.6021 238.654 85.6007 238.678 85.6048C244.226 85.8796 249.682 86.3651 254.045 86.9788C254.086 86.9877 254.122 87.0109 254.147 87.0443C254.172 87.0776 254.184 87.1188 254.181 87.1604C254.178 87.2021 254.161 87.2413 254.132 87.271C254.102 87.3007 254.063 87.3189 254.022 87.3223H254.013Z" fill="#9D0053"/>
<path d="M258.426 87.7795L255.727 87.5051C255.705 87.5034 255.683 87.4972 255.664 87.4871C255.644 87.4769 255.626 87.463 255.612 87.446C255.597 87.429 255.586 87.4093 255.579 87.388C255.573 87.3668 255.57 87.3444 255.572 87.3222C255.573 87.2992 255.579 87.2768 255.589 87.2563C255.599 87.2357 255.614 87.2176 255.631 87.2029C255.649 87.1883 255.669 87.1775 255.691 87.1713C255.714 87.165 255.737 87.1635 255.759 87.1667C256.647 87.2536 257.548 87.3404 258.458 87.4365C258.503 87.4411 258.545 87.4634 258.574 87.4984C258.603 87.5335 258.617 87.5786 258.613 87.624C258.607 87.6689 258.585 87.7099 258.55 87.7387C258.515 87.7676 258.471 87.7822 258.426 87.7795Z" fill="#9D0053"/>
<path d="M105.703 208.083L110.368 202.372L113.999 174.851H118.664L123.42 202.399L127.824 208.083H105.703Z" fill="#9D0053"/>
<path d="M111.195 196.106H122.336L120.731 186.813H112.421L111.195 196.106Z" fill="white"/>
<path opacity="0.3" d="M110.368 202.372L123.42 202.399L127.824 208.083H105.703L110.368 202.372Z" fill="black"/>
<path d="M196.768 208.083L201.432 202.372L205.064 174.851H209.728L214.485 202.399L218.889 208.083H196.768Z" fill="#9D0053"/>
<path d="M202.26 196.106H213.4L211.795 186.813H203.485L202.26 196.106Z" fill="white"/>
<path opacity="0.3" d="M201.432 202.372L214.485 202.399L218.889 208.083H196.768L201.432 202.372Z" fill="black"/>
<path d="M277.048 207.025L281.713 201.314L285.344 173.792H290.009L294.765 201.341L299.169 207.025H277.048Z" fill="#9D0053"/>
<path d="M282.54 195.048H293.681L292.075 185.755H283.766L282.54 195.048Z" fill="white"/>
<path opacity="0.3" d="M281.713 201.313L294.765 201.341L299.169 207.025H277.048L281.713 201.313Z" fill="black"/>
<path d="M23.2002 200.572L27.2064 200.966L30.1654 190.812L24.0737 190.148L23.2002 200.572Z" fill="#EEC1BB"/>
<path d="M27.7826 199.198H26.3558C26.1965 199.199 26.0398 199.238 25.8983 199.311C25.7568 199.384 25.6346 199.49 25.5417 199.619C24.7185 200.75 24.0965 200.324 23.2002 199.262C22.6285 199.198 22.4776 199.853 22.4318 200.027L21.3617 203.92C21.3179 204.076 21.3376 204.243 21.4164 204.384C21.4953 204.526 21.6268 204.631 21.7824 204.675C21.8358 204.701 21.8929 204.718 21.9516 204.726H33.2844C35.0862 204.726 35.4613 202.894 34.7204 202.738C31.3818 202.001 29.0174 201.016 27.9884 200.045C27.7964 199.848 27.993 199.724 27.7826 199.198Z" fill="#263238"/>
<path d="M30.8877 200.302C30.9607 200.249 31.0206 200.181 31.0626 200.101C31.1047 200.022 31.1277 199.933 31.13 199.844C31.1366 199.795 31.1288 199.745 31.1077 199.7C31.0866 199.655 31.0531 199.618 31.0111 199.592C30.5538 199.276 28.7748 200.109 28.5781 200.21C28.567 200.214 28.5567 200.219 28.548 200.227C28.5394 200.235 28.5325 200.245 28.5278 200.256C28.5219 200.276 28.5238 200.297 28.5331 200.316C28.5424 200.335 28.5585 200.349 28.5781 200.356C29.0158 200.462 29.4635 200.521 29.9135 200.531C30.2543 200.56 30.5955 200.48 30.8877 200.302ZM30.8877 199.72C30.9056 199.73 30.9197 199.746 30.928 199.765C30.9362 199.784 30.9381 199.805 30.9334 199.825C30.9305 199.892 30.913 199.957 30.8822 200.017C30.8514 200.076 30.808 200.128 30.755 200.169C30.348 200.471 29.383 200.338 28.8434 200.242C29.598 199.917 30.6407 199.546 30.9014 199.72H30.8877Z" fill="#9D0053"/>
<path d="M28.6382 200.37C29.1733 200.146 30.2983 199.262 30.2389 198.795C30.2389 198.694 30.1611 198.579 29.9142 198.547C28.9355 198.433 28.5147 200.196 28.5147 200.269C28.507 200.282 28.5029 200.296 28.5029 200.311C28.5029 200.325 28.507 200.339 28.5147 200.352C28.524 200.356 28.5342 200.359 28.5444 200.359C28.5547 200.359 28.5649 200.356 28.5742 200.352L28.6382 200.37ZM29.8821 198.689C30.0651 198.689 30.0651 198.776 30.0651 198.799C30.1154 199.083 29.3013 199.816 28.7159 200.123C28.8394 199.715 29.1961 198.685 29.8181 198.685L29.8821 198.689Z" fill="#9D0053"/>
<path d="M27.5634 201.199C27.5442 201.206 27.5233 201.206 27.504 201.199C27.491 201.192 27.4798 201.182 27.4708 201.17C27.4619 201.158 27.4556 201.144 27.4521 201.13C27.4487 201.115 27.4483 201.1 27.4509 201.085C27.4535 201.07 27.4592 201.056 27.4674 201.044C27.6092 200.818 27.7985 200.626 28.0221 200.482C28.2456 200.337 28.498 200.243 28.7617 200.206C28.7911 200.203 28.8206 200.211 28.8443 200.229C28.8679 200.247 28.8841 200.273 28.8897 200.302C28.8937 200.332 28.886 200.363 28.8682 200.387C28.8503 200.412 28.8236 200.429 28.7937 200.435C28.563 200.466 28.342 200.547 28.1461 200.673C27.9502 200.799 27.7841 200.966 27.6595 201.163C27.6474 201.176 27.6325 201.186 27.6158 201.193C27.5991 201.199 27.5812 201.201 27.5634 201.199Z" fill="#9D0053"/>
<path d="M28.4503 201.868C28.431 201.874 28.4102 201.874 28.3909 201.868C28.3657 201.852 28.3478 201.827 28.3409 201.797C28.3341 201.768 28.3389 201.738 28.3543 201.712C28.4961 201.487 28.6854 201.295 28.909 201.15C29.1325 201.005 29.3849 200.911 29.6485 200.874C29.6787 200.871 29.7087 200.88 29.7325 200.899C29.7563 200.918 29.7721 200.945 29.7766 200.975C29.7805 201.004 29.7727 201.035 29.7547 201.059C29.7368 201.083 29.7101 201.098 29.6806 201.103C29.4505 201.136 29.2302 201.218 29.0345 201.344C28.8388 201.469 28.6724 201.636 28.5464 201.831C28.5346 201.845 28.5196 201.855 28.5029 201.861C28.4862 201.868 28.4681 201.87 28.4503 201.868Z" fill="#9D0053"/>
<path d="M29.5566 202.436C29.5373 202.442 29.5164 202.442 29.4972 202.436C29.4842 202.428 29.4729 202.418 29.464 202.406C29.4551 202.394 29.4487 202.38 29.4453 202.366C29.4419 202.351 29.4415 202.336 29.4441 202.321C29.4467 202.307 29.4523 202.293 29.4606 202.28C29.6024 202.054 29.7917 201.863 30.0152 201.718C30.2388 201.573 30.4912 201.479 30.7548 201.442C30.785 201.439 30.815 201.448 30.8388 201.467C30.8626 201.486 30.8783 201.513 30.8829 201.543C30.8868 201.572 30.879 201.602 30.861 201.626C30.843 201.65 30.8164 201.666 30.7868 201.671C30.5566 201.703 30.336 201.785 30.1403 201.911C29.9445 202.037 29.7782 202.203 29.6526 202.399C29.6406 202.412 29.6256 202.422 29.609 202.429C29.5923 202.435 29.5744 202.438 29.5566 202.436Z" fill="#9D0053"/>
<path opacity="0.3" d="M28.6008 196.179L28.2349 197.425L23.5244 196.702L23.6113 195.68L28.6008 196.179Z" fill="black"/>
<path d="M46.5107 200.572L50.517 200.966L53.4759 190.812L47.3843 190.148L46.5107 200.572Z" fill="#EEC1BB"/>
<path d="M51.0932 199.198H49.6663C49.5071 199.199 49.3503 199.238 49.2088 199.311C49.0674 199.384 48.9452 199.49 48.8522 199.619C48.029 200.75 47.4071 200.324 46.5107 199.262C45.939 199.198 45.7881 199.853 45.7424 200.027L44.6722 203.92C44.6285 204.076 44.6482 204.243 44.727 204.384C44.8058 204.526 44.9374 204.631 45.093 204.675C45.1506 204.703 45.2125 204.72 45.2759 204.726H56.604C58.4059 204.726 58.781 202.894 58.0401 202.738C54.7015 202.001 52.3371 201.016 51.3081 200.045C51.1069 199.848 51.3036 199.724 51.0932 199.198Z" fill="#263238"/>
<path d="M54.1982 200.302C54.2712 200.249 54.3311 200.181 54.3732 200.101C54.4152 200.022 54.4383 199.933 54.4406 199.844C54.4471 199.795 54.4394 199.745 54.4183 199.7C54.3972 199.655 54.3636 199.618 54.3217 199.592C53.8644 199.276 52.0899 200.109 51.8887 200.21C51.8775 200.214 51.8673 200.219 51.8586 200.227C51.8499 200.235 51.843 200.245 51.8384 200.256C51.8324 200.276 51.8343 200.297 51.8437 200.316C51.853 200.335 51.8691 200.349 51.8887 200.356C52.3278 200.462 52.7771 200.521 53.2287 200.531C53.5679 200.559 53.9076 200.479 54.1982 200.302ZM54.1982 199.72C54.2161 199.73 54.2303 199.746 54.2385 199.765C54.2467 199.784 54.2486 199.805 54.2439 199.825C54.2411 199.892 54.2236 199.957 54.1928 200.017C54.162 200.076 54.1186 200.128 54.0656 200.169C53.6586 200.471 52.6936 200.338 52.1539 200.242C52.9085 199.917 53.965 199.546 54.2119 199.72H54.1982Z" fill="#9D0053"/>
<path d="M51.9485 200.37C52.4836 200.146 53.6086 199.262 53.5492 198.795C53.5492 198.694 53.4714 198.579 53.229 198.547C52.2458 198.433 51.825 200.196 51.825 200.269C51.8204 200.284 51.8201 200.299 51.8241 200.314C51.8282 200.329 51.8364 200.342 51.8479 200.352C51.8572 200.356 51.8673 200.359 51.8776 200.359C51.8879 200.359 51.8981 200.356 51.9073 200.352L51.9485 200.37ZM53.1924 198.689C53.3754 198.689 53.3754 198.776 53.3754 198.799C53.4257 199.083 52.6116 199.816 52.0262 200.123C52.1497 199.715 52.4836 198.685 53.1284 198.685L53.1924 198.689Z" fill="#9D0053"/>
<path d="M50.873 201.199C50.8537 201.206 50.8328 201.206 50.8136 201.199C50.8006 201.192 50.7893 201.182 50.7804 201.17C50.7715 201.158 50.7651 201.144 50.7617 201.13C50.7583 201.115 50.7579 201.1 50.7605 201.085C50.7631 201.07 50.7687 201.056 50.777 201.044C50.9188 200.818 51.1081 200.626 51.3317 200.482C51.5552 200.337 51.8076 200.243 52.0712 200.206C52.1007 200.203 52.1301 200.211 52.1538 200.229C52.1775 200.247 52.1937 200.273 52.1993 200.302C52.2033 200.332 52.1956 200.363 52.1777 200.387C52.1599 200.412 52.1332 200.429 52.1032 200.435C51.8726 200.466 51.6516 200.547 51.4557 200.673C51.2597 200.799 51.0937 200.966 50.969 201.163C50.957 201.176 50.942 201.186 50.9254 201.193C50.9087 201.199 50.8908 201.201 50.873 201.199Z" fill="#9D0053"/>
<path d="M51.7609 201.868C51.7415 201.874 51.7208 201.874 51.7014 201.868C51.6762 201.852 51.6583 201.827 51.6515 201.797C51.6446 201.768 51.6494 201.738 51.6648 201.712C51.8067 201.487 51.996 201.295 52.2195 201.15C52.4431 201.005 52.6955 200.911 52.9591 200.874C52.9741 200.872 52.9894 200.873 53.004 200.877C53.0186 200.881 53.0323 200.888 53.0442 200.898C53.0561 200.907 53.066 200.919 53.0734 200.932C53.0808 200.945 53.0855 200.96 53.0872 200.975C53.0911 201.004 53.0832 201.035 53.0653 201.058C53.0473 201.082 53.0207 201.098 52.9911 201.103C52.761 201.136 52.5407 201.218 52.345 201.344C52.1494 201.469 51.9829 201.636 51.8569 201.831C51.8457 201.845 51.8308 201.856 51.8139 201.863C51.797 201.869 51.7787 201.871 51.7609 201.868Z" fill="#9D0053"/>
<path d="M52.8672 202.436C52.8479 202.442 52.827 202.442 52.8077 202.436C52.7948 202.428 52.7835 202.418 52.7746 202.406C52.7656 202.394 52.7593 202.38 52.7558 202.366C52.7524 202.351 52.752 202.336 52.7546 202.321C52.7573 202.307 52.7629 202.293 52.7711 202.28C52.913 202.054 53.1023 201.863 53.3258 201.718C53.5493 201.573 53.8017 201.479 54.0654 201.442C54.0955 201.439 54.1255 201.448 54.1493 201.467C54.1731 201.486 54.1889 201.513 54.1934 201.543C54.1974 201.572 54.1895 201.602 54.1715 201.626C54.1536 201.65 54.127 201.666 54.0974 201.671C53.8671 201.703 53.6466 201.785 53.4508 201.911C53.2551 202.037 53.0887 202.203 52.9632 202.399C52.9511 202.412 52.9362 202.422 52.9195 202.429C52.9028 202.435 52.8849 202.438 52.8672 202.436Z" fill="#9D0053"/>
<path opacity="0.3" d="M51.9114 196.179L51.5455 197.425L46.835 196.702L46.9173 195.68L51.9114 196.179Z" fill="black"/>
<path d="M55.0722 124.063C55.0722 124.063 58.3878 138.719 59.9702 151.543C60.455 155.441 60.5464 160.653 59.6912 164.486L53.2885 196.335L45.2349 195.529C46.5017 181.789 48.2625 164.843 48.7701 157.644C47.0002 149.198 43.2272 138.971 39.5137 128.79L55.0722 124.063Z" fill="#9D0053"/>
<path d="M28.6193 160.19C28.7976 159.393 29.0766 157.781 29.447 155.656H29.415C29.6757 152.839 30.1605 139.786 31.0477 131.46C31.7337 126.156 33.0874 122.57 34.4457 120.811L34.6423 120.564C34.8664 120.284 35.0036 120.106 35.0036 120.106C35.2643 120.175 35.5204 120.234 35.7765 120.289L36.0647 120.353C42.057 121.535 48.2377 121.356 54.1522 119.831C55.0394 122.025 55.7025 126.701 56.3474 131.538C55.3413 132.646 50.9234 134.079 45.8562 135.032L44.411 141.577C43.6518 145.635 42.6731 149.615 41.8453 153.196L40.981 157.121C40.9261 157.382 40.8758 157.634 40.8255 157.886C40.3682 160.144 29.9227 196.5 29.9227 196.5L23.1084 196.102C23.1084 196.102 26.1542 170.948 28.6193 160.19Z" fill="#9D0053"/>
<path opacity="0.2" d="M44.3195 142.191C44.2921 142.323 47.4385 130.864 47.4385 130.864C47.4385 130.864 50.0911 141.096 46.0665 147.494L44.3195 142.191Z" fill="black"/>
<path d="M37.5469 90.4868C37.5469 90.4868 39.1475 91.7188 41.2055 93.4958C41.6368 93.8659 42.1077 94.1869 42.6096 94.453C43.9816 95.1721 45.1935 95.5843 45.5273 94.9339C45.5996 94.7876 45.6563 94.6341 45.6966 94.4759C45.9801 93.3813 45.8658 91.847 44.9831 91.1463C43.9907 90.3539 43.5105 89.6761 43.6889 88.6044C43.8068 87.9733 43.9986 87.3584 44.2605 86.7724L43.4785 85.8564L39.3899 81.7344C39.4905 84.4641 39.7009 88.9891 37.5469 90.4868Z" fill="#EEC1BB"/>
<path opacity="0.2" d="M43.657 88.852C42.532 88.1833 41.2972 87.02 41.4481 85.6964C41.497 85.2108 41.6029 84.7327 41.7637 84.272L44.0504 87.3039C43.8653 87.8047 43.7335 88.3236 43.657 88.852Z" fill="black"/>
<path d="M38.2325 77.2692C38.6166 81.4782 38.6898 83.2644 40.8575 85.4674C44.1183 88.7879 49.1399 87.6703 50.0042 83.498C50.7817 79.7469 50.0042 73.4952 45.8882 71.7228C45.0151 71.3143 44.0488 71.1469 43.0894 71.2381C42.13 71.3292 41.2124 71.6756 40.4316 72.2413C39.6508 72.8069 39.0352 73.5714 38.6485 74.4554C38.2619 75.3394 38.1182 76.3109 38.2325 77.2692Z" fill="#EEC1BB"/>
<path d="M43.4463 78.5975C43.4463 78.9913 43.7115 79.3119 43.9859 79.3211C44.2603 79.3303 44.4707 79.0097 44.4433 78.6158C44.4158 78.2219 44.178 77.8967 43.9036 77.8921C43.6292 77.8876 43.4463 78.2036 43.4463 78.5975Z" fill="#263238"/>
<path d="M47.8185 78.5379C47.8185 78.9181 48.0838 79.2341 48.3582 79.2387C48.6326 79.2433 48.843 78.941 48.8155 78.5563C48.7881 78.1715 48.5503 77.8601 48.2759 77.8555C48.0015 77.8509 47.8002 78.1532 47.8185 78.5379Z" fill="#263238"/>
<path d="M42.7968 77.0861C42.8238 77.0902 42.8514 77.0882 42.8775 77.0803C42.9036 77.0724 42.9276 77.0587 42.9478 77.0403C43.1278 76.8688 43.3468 76.7438 43.5858 76.676C43.8248 76.6082 44.0767 76.5996 44.3198 76.651C44.3444 76.6593 44.3705 76.6623 44.3963 76.6597C44.4222 76.6571 44.4472 76.6491 44.4697 76.6361C44.4922 76.6231 44.5116 76.6054 44.5268 76.5843C44.5419 76.5632 44.5524 76.5391 44.5576 76.5136C44.5704 76.459 44.5619 76.4016 44.5339 76.353C44.5058 76.3045 44.4603 76.2685 44.4067 76.2525C44.099 76.1767 43.7773 76.1789 43.4707 76.2589C43.1641 76.3389 42.8822 76.4941 42.6505 76.7105C42.6122 76.7506 42.5908 76.8039 42.5908 76.8594C42.5908 76.9148 42.6122 76.9681 42.6505 77.0082C42.6684 77.0304 42.6905 77.0488 42.7157 77.0622C42.7408 77.0756 42.7685 77.0837 42.7968 77.0861Z" fill="#263238"/>
<path d="M49.168 76.8799C49.2067 76.8882 49.2471 76.8846 49.2837 76.8695C49.3204 76.8544 49.3516 76.8286 49.3734 76.7954C49.3952 76.7622 49.4064 76.7233 49.4056 76.6836C49.4049 76.6439 49.3922 76.6054 49.3692 76.573C49.2 76.2853 48.9675 76.0399 48.6893 75.8558C48.4111 75.6717 48.0946 75.5536 47.764 75.5105C47.7372 75.5092 47.7104 75.5135 47.6854 75.5232C47.6604 75.5328 47.6377 75.5476 47.6188 75.5666C47.5998 75.5856 47.585 75.6083 47.5754 75.6334C47.5657 75.6584 47.5614 75.6852 47.5627 75.712C47.5648 75.7669 47.5869 75.8191 47.6248 75.8588C47.6627 75.8985 47.7139 75.9228 47.7685 75.9273C48.0297 75.964 48.279 76.0599 48.4977 76.2074C48.7164 76.355 48.8987 76.5505 49.0308 76.7791C49.0622 76.8288 49.1112 76.8648 49.168 76.8799Z" fill="#263238"/>
<path d="M40.021 79.9071C40.021 79.9071 41.3198 77.9469 40.7847 74.1226C40.7347 73.8155 40.8054 73.5009 40.9818 73.2447C41.1583 72.9886 41.4269 72.8108 41.7314 72.7486C43.5607 72.3959 45.9709 70.1059 48.9298 74.6539C48.9298 74.6539 47.5167 69.2037 39.2618 71.3975C31.9124 73.3532 36.9431 79.5911 37.6977 80.2323C38.4523 80.8735 40.021 79.9071 40.021 79.9071Z" fill="#263238"/>
<path d="M36.9568 80.6995C37.4011 81.4795 38.1364 82.0511 39.0011 82.2887C40.1124 82.5681 40.6887 80.7773 40.3091 79.6598C40.1299 79.1576 39.7777 78.736 39.3157 78.4707C38.8538 78.2053 38.3125 78.1138 37.7892 78.2125C36.7236 78.4278 36.3897 79.6919 36.9568 80.6995Z" fill="#EEC1BB"/>
<path d="M46.762 82.6458C46.4738 83.1446 46.2216 83.6635 46.0074 84.1984L45.7102 84.1297C44.3748 83.8183 43.8808 83.2137 43.6888 82.6733C43.5776 82.2389 43.6196 81.7795 43.8077 81.3726C44.4205 81.9634 45.637 82.3527 46.3047 82.5313C46.5837 82.6137 46.762 82.6458 46.762 82.6458Z" fill="#263238"/>
<path d="M46.3045 82.5316L46.0713 82.9896C44.8136 82.6919 43.9675 82.3118 43.6611 81.8354C43.6888 81.6768 43.738 81.5227 43.8075 81.3774C44.4203 81.982 45.646 82.353 46.3045 82.5316Z" fill="white"/>
<path d="M45.7333 84.1298C44.3979 83.8183 43.904 83.2138 43.7119 82.6733C44.2191 82.8 44.6994 83.0172 45.1296 83.3145C45.4119 83.5155 45.6233 83.8009 45.7333 84.1298Z" fill="#DC5753"/>
<path d="M46.6934 78.4185C47.0698 79.3173 47.5372 80.1752 48.0882 80.9787C48.1183 81.019 48.1385 81.0659 48.1472 81.1155C48.1558 81.1652 48.1527 81.2161 48.138 81.2643C48.1233 81.3125 48.0974 81.3565 48.0626 81.3928C48.0277 81.4291 47.9848 81.4567 47.9373 81.4733C47.5695 81.5775 47.1801 81.5775 46.8123 81.4733L46.6934 78.4185Z" fill="#D4827D"/>
<path d="M43.8398 77.8825L44.8048 77.6538C44.8048 77.6538 44.2789 78.3764 43.8398 77.8825Z" fill="#263238"/>
<path d="M48.1797 77.8595L49.1447 77.6309C49.1447 77.6309 48.6187 78.358 48.1797 77.8595Z" fill="#263238"/>
<path d="M49.6612 76.4401C49.6612 76.4401 52.2085 73.4218 50.5118 70.9441C49.8716 70.0281 48.6825 69.8678 47.6672 69.4143C45.28 68.3609 43.3454 68.1457 40.2996 71.1364C37.1303 74.2462 36.5586 75.2905 40.0526 79.1239C40.0526 79.1239 39.6776 78.6247 40.9673 77.4843C42.257 76.3439 43.7113 75.3271 42.9933 74.2233C43.2934 74.3424 43.5575 74.5376 43.7595 74.7897C43.9616 75.0418 44.0947 75.3422 44.1458 75.6615L46.0346 75.1439C45.9508 74.62 45.7525 74.1211 45.4537 73.6829C46.0148 74.0209 46.4647 74.5161 46.748 75.1073L48.3852 75.4141C48.3852 75.4141 48.1429 73.9119 47.681 73.376C47.681 73.3715 49.181 74.9103 49.6612 76.4401Z" fill="#263238"/>
<path opacity="0.2" d="M39.4539 80.6903C39.4268 80.6936 39.3996 80.687 39.3769 80.6719C39.3543 80.6568 39.3378 80.6341 39.3304 80.6079C39.2998 80.237 39.1375 79.8893 38.873 79.6278C38.6016 79.3699 38.2454 79.2201 37.8715 79.2064C37.8416 79.2041 37.8136 79.1906 37.7933 79.1685C37.7729 79.1464 37.7616 79.1174 37.7617 79.0873C37.7617 79.0721 37.7648 79.057 37.7709 79.0431C37.7769 79.0291 37.7858 79.0165 37.797 79.0062C37.8082 78.9959 37.8214 78.988 37.8358 78.983C37.8502 78.9781 37.8655 78.9762 37.8806 78.9774C38.3107 78.9927 38.7203 79.1651 39.032 79.4621C39.3438 79.7591 39.5361 80.1602 39.5728 80.5896C39.5753 80.6193 39.5663 80.6488 39.5475 80.6719C39.5287 80.6949 39.5017 80.7098 39.4721 80.7133L39.4539 80.6903Z" fill="black"/>
<path d="M54.4588 100.875L55.7942 105.629C56.2515 107.218 56.6722 108.802 57.1342 110.364C57.3628 111.147 57.5915 111.917 57.843 112.654C57.9619 113.025 58.0808 113.396 58.2043 113.735L58.3872 114.193L58.465 114.367C58.4784 114.392 58.4891 114.418 58.497 114.445C58.4558 114.445 58.5793 114.688 58.7577 114.876C58.9651 115.094 59.19 115.294 59.43 115.476C59.9422 115.901 60.5733 116.346 61.1495 116.776L60.6648 119.107C59.8047 119.143 58.9446 119.039 58.1174 118.801C57.6585 118.669 57.2165 118.485 56.8003 118.251C56.2431 117.954 55.7552 117.542 55.3688 117.042C55.2649 116.896 55.1717 116.743 55.0899 116.584L54.8886 116.213C54.7743 115.989 54.6737 115.755 54.5822 115.553C54.3902 115.123 54.2255 114.72 54.038 114.308C53.727 113.502 53.4389 112.695 53.1645 111.894C52.6203 110.291 52.0806 108.688 51.6279 107.062C51.1751 105.436 50.7132 103.856 50.2559 102.226L54.4588 100.875Z" fill="#EEC1BB"/>
<path d="M51.2211 93.0654C53.4297 95.5218 55.0142 98.4754 55.8402 101.676L47.9283 103.572C47.9283 103.572 45.7331 97.7919 46.6478 95.676C47.5624 93.4684 48.9847 91.3479 51.2211 93.0654Z" fill="#263238"/>
<g opacity="0.3">
<path d="M51.7245 96.8257C52.1041 97.4856 52.3962 98.1923 52.5934 98.9279C52.8614 100.024 53.0313 101.141 53.101 102.267L51.5781 102.702C51.6787 100.664 51.6787 98.8638 51.7245 96.8257Z" fill="black"/>
</g>
<path d="M31.8392 102.889L29.333 94.3477C30.9154 91.9799 38.7541 90.1616 38.7541 90.1616L42.7695 91.5723L43.9036 90.441C43.9036 90.441 45.8839 90.899 47.5623 91.4394C49.849 92.1768 51.0563 92.7722 51.596 94.0317C51.596 94.0317 52.5427 96.8255 51.9756 102.578C51.8201 104.163 51.9756 112.388 52.4329 115.104L55.1037 123.573C45.669 130.933 32.4657 124.063 32.4657 124.063C32.8911 122.762 34.2951 118.773 34.4963 117.504C34.3591 115.883 34.5512 113.382 33.8652 110.552C33.7737 110.002 32.0679 103.421 31.8392 102.889Z" fill="#263238"/>
<path opacity="0.3" d="M32.6301 105.239C32.6301 105.239 36.2476 100.659 35.6302 98.7769L31.9121 102.267L32.6301 105.239Z" fill="black"/>
<path d="M30.4491 93.4958C28.4688 94.1599 26.4932 100.434 26.4932 100.434L32.315 104.282C32.315 104.282 35.7267 99.2116 35.1093 96.5918C34.5834 94.3797 32.9644 92.6439 30.4491 93.4958Z" fill="#263238"/>
<path d="M31.9397 104.035C31.9397 104.035 28.3542 111.752 28.4228 112.054C28.6469 113.158 40.1305 112.412 40.1305 112.412L40.4049 115.498C36.9729 116.537 33.423 117.136 29.8405 117.28C24.3113 117.39 21.7914 114.486 23.1268 111.028C24.5583 107.364 27.1605 100.875 27.1605 100.875L31.9397 104.035Z" fill="#EEC1BB"/>
<path opacity="0.3" d="M28.4234 112.054C27.6313 111.942 26.8247 112.104 26.1367 112.512C26.1367 112.512 26.2511 112.004 27.1886 111.656C27.6535 111.523 28.1373 111.469 28.62 111.495L28.4234 112.054Z" fill="black"/>
<path d="M39.2069 111.853C39.2069 111.853 42.9113 112.732 43.2634 113.465C43.6156 114.197 42.4585 114.152 42.4585 114.152C42.4585 114.152 43.7253 114.275 43.7482 114.82C43.7482 115.475 42.5637 115.429 42.5637 115.429C42.5637 115.429 43.5927 115.571 43.579 116.057C43.5653 116.542 42.207 116.607 42.207 116.607C42.207 116.607 42.9159 116.845 42.7146 117.179C42.5134 117.513 39.6093 117.637 38.745 117.129C37.8806 116.62 37.8303 112.86 37.9812 112.04C38.1321 111.22 38.2053 110.781 39.2115 109.526V111.853H39.2069Z" fill="#EEC1BB"/>
<path opacity="0.2" d="M42.4584 114.215L40.2586 113.895C40.2433 113.892 40.2297 113.883 40.2204 113.87C40.2111 113.858 40.2068 113.842 40.2083 113.826C40.2088 113.819 40.2109 113.811 40.2145 113.805C40.2181 113.798 40.2231 113.792 40.2291 113.787C40.2352 113.782 40.2421 113.779 40.2496 113.777C40.257 113.775 40.2648 113.775 40.2723 113.776L42.4721 114.092C42.4866 114.096 42.4991 114.105 42.5075 114.118C42.5158 114.13 42.5195 114.145 42.5178 114.16C42.5167 114.175 42.5099 114.189 42.4989 114.199C42.4878 114.21 42.4734 114.215 42.4584 114.215Z" fill="black"/>
<path opacity="0.2" d="M42.4992 115.489L40.3589 115.352C40.3315 115.352 40.3086 115.319 40.3086 115.287C40.3086 115.272 40.3149 115.257 40.326 115.245C40.3372 115.234 40.3523 115.228 40.368 115.228L42.5038 115.365C42.5188 115.367 42.5323 115.375 42.5416 115.387C42.551 115.399 42.5554 115.414 42.5541 115.429C42.5547 115.437 42.5538 115.444 42.5513 115.452C42.5488 115.459 42.5449 115.465 42.5397 115.471C42.5346 115.477 42.5283 115.481 42.5213 115.484C42.5144 115.487 42.5068 115.489 42.4992 115.489Z" fill="black"/>
<path opacity="0.2" d="M42.1241 116.666L40.5326 116.611C40.5248 116.611 40.5172 116.609 40.5102 116.605C40.5032 116.602 40.497 116.597 40.4919 116.591C40.4868 116.585 40.4829 116.578 40.4805 116.57C40.478 116.563 40.4771 116.555 40.4777 116.547C40.4788 116.532 40.4854 116.517 40.4963 116.506C40.5073 116.495 40.5218 116.489 40.5372 116.488L42.1287 116.543C42.1432 116.546 42.1562 116.554 42.1653 116.566C42.1745 116.577 42.1794 116.592 42.179 116.607C42.1796 116.614 42.1787 116.622 42.1762 116.629C42.1737 116.636 42.1698 116.643 42.1646 116.648C42.1595 116.654 42.1532 116.659 42.1462 116.662C42.1393 116.665 42.1317 116.666 42.1241 116.666Z" fill="black"/>
<path d="M60.4961 112.096C60.6402 110.371 61.371 108.747 62.5662 107.497C63.7615 106.247 65.3489 105.445 67.0634 105.226L66.3408 106.435L67.7128 105.615L61.3879 113.584L60.4961 112.096Z" fill="#9D0053"/>
<path opacity="0.8" d="M60.4961 112.096C60.6402 110.371 61.371 108.747 62.5662 107.497C63.7615 106.247 65.3489 105.445 67.0634 105.226L66.3408 106.435L67.7128 105.615L61.3879 113.584L60.4961 112.096Z" fill="white"/>
<path d="M50.5716 105.569L52.7485 105.5L63.1711 109.04L53.6723 123.573L44.3244 121.237C44.1972 121.202 44.0782 121.142 43.9742 121.061C43.8701 120.98 43.7831 120.879 43.7181 120.764C43.6531 120.649 43.6113 120.523 43.5953 120.392C43.5793 120.26 43.5893 120.127 43.6247 120C43.6472 119.922 43.6794 119.846 43.7207 119.776L47.4937 112.938C47.5339 112.868 47.555 112.789 47.555 112.709C47.555 112.629 47.5339 112.55 47.4937 112.48L46.9815 111.564C46.9298 111.472 46.9027 111.367 46.9027 111.262C46.9027 111.156 46.9298 111.052 46.9815 110.959L49.5151 106.256C49.6175 106.06 49.7685 105.894 49.9535 105.774C50.1386 105.653 50.3514 105.583 50.5716 105.569Z" fill="#9D0053"/>
<path d="M63.1707 109.041L69.1069 105.226L59.3474 119.744L53.6719 123.573L63.1707 109.041Z" fill="#9D0053"/>
<path opacity="0.2" d="M63.1707 109.041L69.1069 105.226L59.3474 119.744L53.6719 123.573L63.1707 109.041Z" fill="black"/>
<path d="M62.0053 115.796C62.0053 115.796 59.7187 115.187 59.1927 115.585C58.6668 115.984 59.3802 116.359 59.3802 116.359C59.3802 116.359 58.5845 115.997 58.3512 116.382C58.0631 116.84 58.8086 117.229 58.8086 117.229C58.8086 117.229 58.1454 116.968 57.9534 117.321C57.7613 117.674 58.5388 118.196 58.5388 118.196C58.5388 118.196 58.0265 118.118 58.0082 118.425C57.99 118.732 59.6272 119.858 60.3544 119.799C61.0815 119.739 62.641 117.083 62.8971 116.446C63.1532 115.81 63.1167 115.31 62.6502 114.871L62.0191 115.814L62.0053 115.796Z" fill="#EEC1BB"/>
<path opacity="0.2" d="M59.3569 116.401L60.7746 116.945C60.7873 116.947 60.8001 116.944 60.8109 116.937C60.8218 116.931 60.83 116.92 60.8341 116.908C60.8412 116.9 60.8451 116.889 60.8451 116.879C60.8451 116.868 60.8412 116.857 60.8341 116.849L59.4164 116.309C59.4107 116.307 59.4046 116.306 59.3985 116.307C59.3925 116.307 59.3866 116.309 59.3814 116.312C59.3761 116.315 59.3716 116.319 59.3682 116.324C59.3647 116.33 59.3625 116.335 59.3615 116.341C59.3565 116.344 59.3523 116.348 59.3492 116.353C59.3461 116.358 59.3443 116.364 59.3439 116.37C59.3434 116.376 59.3444 116.381 59.3466 116.387C59.3489 116.392 59.3524 116.397 59.3569 116.401Z" fill="black"/>
<path opacity="0.2" d="M58.8086 117.294L60.1211 117.944C60.1211 117.944 60.1623 117.944 60.176 117.916C60.18 117.913 60.1832 117.908 60.1854 117.903C60.1876 117.898 60.1887 117.892 60.1887 117.887C60.1887 117.881 60.1876 117.876 60.1854 117.87C60.1832 117.865 60.18 117.861 60.176 117.857L58.8635 117.207C58.8635 117.207 58.8223 117.207 58.8086 117.234C58.8046 117.238 58.8014 117.242 58.7992 117.248C58.797 117.253 58.7959 117.258 58.7959 117.264C58.7959 117.269 58.797 117.275 58.7992 117.28C58.8014 117.285 58.8046 117.29 58.8086 117.294Z" fill="black"/>
<path opacity="0.2" d="M58.538 118.265L59.4938 118.781C59.5054 118.785 59.5177 118.784 59.5286 118.779C59.5395 118.774 59.5483 118.765 59.5533 118.754C59.5573 118.75 59.5605 118.746 59.5627 118.74C59.5648 118.735 59.566 118.73 59.566 118.724C59.566 118.719 59.5648 118.713 59.5627 118.708C59.5605 118.703 59.5573 118.698 59.5533 118.695L58.5929 118.164C58.5929 118.164 58.5471 118.164 58.5334 118.187C58.5197 118.21 58.538 118.256 58.538 118.265Z" fill="black"/>
<path d="M38.5847 103.581H44.0498V100.879H38.5847V103.581Z" fill="#9D0053"/>
<path d="M42.1426 102.23C42.1426 102.354 42.1793 102.475 42.2482 102.579C42.317 102.682 42.4149 102.762 42.5294 102.81C42.6439 102.857 42.7698 102.87 42.8914 102.845C43.0129 102.821 43.1246 102.761 43.2122 102.674C43.2998 102.586 43.3595 102.474 43.3836 102.352C43.4078 102.231 43.3954 102.105 43.348 101.99C43.3006 101.875 43.2203 101.777 43.1172 101.708C43.0142 101.639 42.8931 101.603 42.7691 101.603C42.6867 101.602 42.6049 101.618 42.5287 101.649C42.4524 101.68 42.383 101.727 42.3247 101.785C42.2664 101.843 42.2203 101.913 42.189 101.989C42.1578 102.066 42.142 102.147 42.1426 102.23Z" fill="white"/>
<path d="M39.3261 102.455H41.4893V101.997H39.3261V102.455Z" fill="white"/>
<path d="M45.3949 90.803L43.657 89.113L42.7698 91.5679L38.9007 88.481L36.9434 90.6336L42.2393 95.2594L46.4193 96.8257L47.1785 93.5419L45.3949 90.803Z" fill="#263238"/>
<path opacity="0.3" d="M45.3949 90.8027C45.5184 90.9905 45.3949 93.8439 45.3949 93.8439L42.7698 91.8745L41.8002 94.0225L37.1309 90.8165L41.91 94.9843L42.7698 92.4515L45.6967 94.9843L45.3949 90.8027Z" fill="black"/>
<path d="M38.5207 82.9847C38.9653 82.9847 39.3256 82.6238 39.3256 82.1786C39.3256 81.7335 38.9653 81.3726 38.5207 81.3726C38.0762 81.3726 37.7158 81.7335 37.7158 82.1786C37.7158 82.6238 38.0762 82.9847 38.5207 82.9847Z" fill="#9D0053"/>
</svg>
