<svg width="24" height="24" viewBox="0 0 24 24" fill="none" xmlns="http://www.w3.org/2000/svg">
<rect width="24" height="24" rx="8" fill="#D2A054"/>
<path d="M15.1733 10.5703C15.1733 10.5703 11.4612 8.03303 10.7561 7.96715C10.0506 7.90198 9.3125 8.18886 9.3125 8.18886L12.2539 11.3661L15.1733 10.5703Z" fill="white"/>
<path d="M4.70898 9.72819L6.91863 12.9125L8.93667 11.4381L5.77148 9.37402L4.70898 9.72819Z" fill="white"/>
<path d="M8.06973 11.5994C8.06973 11.5994 14.2294 9.37732 15.9202 8.84961C17.9492 8.21707 19.8231 9.0745 19.9379 9.44177C20.043 9.77929 19.504 10.3283 17.3347 11.0054C15.1655 11.6822 10.8372 13.3334 10.8372 13.3334C10.8372 13.3334 7.72442 14.3109 5.0625 12.9158C6.94667 12.0187 8.06973 11.5994 8.06973 11.5994Z" fill="white"/>
<path d="M15.4042 11.6982C15.317 12.1912 13.3812 15.8826 12.8007 16.2892C12.2206 16.6955 11.4375 16.8116 11.4375 16.8116C12.3374 13.1499 12.3512 13.1527 12.4738 12.4529C12.5606 11.9595 15.4913 11.2052 15.4042 11.6982Z" fill="white"/>
<path d="M19.3349 9.00219C19.0611 8.88107 18.7041 8.77198 18.2965 8.70151L18.4697 9.26746L19.3349 9.00219ZM17.2471 8.9009L17.9246 8.69336L18.1321 9.37123L17.4546 9.57878L17.2471 8.9009Z" fill="white"/>
<path d="M10.9297 11.7687C10.9297 11.8626 10.967 11.9527 11.0334 12.0192C11.0998 12.0856 11.1899 12.1229 11.2839 12.1229C11.3778 12.1229 11.4679 12.0856 11.5343 12.0192C11.6007 11.9527 11.638 11.8626 11.638 11.7687C11.638 11.6748 11.6007 11.5847 11.5343 11.5183C11.4679 11.4519 11.3778 11.4146 11.2839 11.4146C11.1899 11.4146 11.0998 11.4519 11.0334 11.5183C10.967 11.5847 10.9297 11.6748 10.9297 11.7687Z" fill="white"/>
<path d="M12.2676 11.3049C12.2676 11.3988 12.3049 11.4889 12.3713 11.5553C12.4377 11.6217 12.5278 11.659 12.6217 11.659C12.7157 11.659 12.8058 11.6217 12.8722 11.5553C12.9386 11.4889 12.9759 11.3988 12.9759 11.3049C12.9759 11.2109 12.9386 11.1208 12.8722 11.0544C12.8058 10.988 12.7157 10.9507 12.6217 10.9507C12.5278 10.9507 12.4377 10.988 12.3713 11.0544C12.3049 11.1208 12.2676 11.2109 12.2676 11.3049Z" fill="white"/>
<path d="M14.2939 10.7233C14.3248 10.812 14.3192 10.9094 14.2785 10.994C14.2377 11.0787 14.165 11.1437 14.0764 11.1749C13.9874 11.2054 13.89 11.1995 13.8054 11.1584C13.7208 11.1173 13.6559 11.0444 13.6248 10.9556C13.5943 10.8669 13.6001 10.7697 13.6409 10.6852C13.6818 10.6007 13.7545 10.5359 13.843 10.5048C13.9318 10.4741 14.0291 10.4799 14.1136 10.5209C14.1981 10.5618 14.2629 10.6346 14.2939 10.7233Z" fill="white"/>
<path d="M14.9453 10.3757C14.9453 10.4222 14.9545 10.4682 14.9723 10.5112C14.9901 10.5542 15.0162 10.5932 15.049 10.6261C15.0819 10.659 15.121 10.6851 15.1639 10.7029C15.2069 10.7207 15.253 10.7298 15.2995 10.7298C15.346 10.7298 15.392 10.7207 15.435 10.7029C15.478 10.6851 15.517 10.659 15.5499 10.6261C15.5828 10.5932 15.6089 10.5542 15.6267 10.5112C15.6445 10.4682 15.6536 10.4222 15.6536 10.3757C15.6536 10.3291 15.6445 10.2831 15.6267 10.2401C15.6089 10.1971 15.5828 10.1581 15.5499 10.1252C15.517 10.0923 15.478 10.0662 15.435 10.0484C15.392 10.0306 15.346 10.0215 15.2995 10.0215C15.253 10.0215 15.2069 10.0306 15.1639 10.0484C15.121 10.0662 15.0819 10.0923 15.049 10.1252C15.0162 10.1581 14.9901 10.1971 14.9723 10.2401C14.9545 10.2831 14.9453 10.3291 14.9453 10.3757Z" fill="white"/>
</svg>
