<svg width="32" height="10" viewBox="0 0 32 10" fill="none" xmlns="http://www.w3.org/2000/svg">
<mask id="mask0_1_22322" style="mask-type:luminance" maskUnits="userSpaceOnUse" x="0" y="0" width="32" height="10">
<path d="M0 0H31.4881V9.75H0V0Z" fill="white"/>
</mask>
<g mask="url(#mask0_1_22322)">
<path fill-rule="evenodd" clip-rule="evenodd" d="M26.5533 8.10669C26.1165 9.02394 25.1558 9.72263 24.064 9.72263C22.9285 9.72263 21.9678 9.02388 21.5748 8.10669H7.73041C7.33734 9.02394 6.37666 9.72263 5.24116 9.72263C4.14935 9.72263 3.14497 9.02388 2.75191 8.06294L1.79122 8.10664C1.13622 7.71357 0.612036 7.14595 0.131536 6.53439C-0.217827 5.31151 0.175237 3.60839 1.13591 1.77414C6.2021 1.59933 12.4909 -1.06449 20.0903 0.551264L23.715 2.64745C25.986 2.47265 33.3232 4.74364 31.0519 8.10645H26.5536L26.5533 8.10669ZM2.18391 2.64769C2.57698 2.64769 2.88266 2.95335 2.88266 3.34644C2.88266 3.73951 2.577 4.04519 2.18391 4.04519C1.79082 4.04519 1.48516 3.73952 1.48516 3.34644C1.48516 2.95337 1.79082 2.64769 2.18391 2.64769ZM20.0027 1.16281C18.5178 0.769744 16.8144 0.595188 15.155 0.595188L14.1943 2.47313C16.1597 2.82249 20.9637 3.43381 22.885 2.86619L20.0027 1.16307V1.16281ZM14.6745 0.595188L13.7138 2.42944C11.6177 2.03637 9.43385 1.81811 8.51685 1.81811C8.34204 1.81811 8.16748 1.73071 8.34204 1.55615C10.0889 1.03198 12.3599 0.682588 14.6745 0.595463L14.6745 0.595188ZM24.0639 4.52588C25.3742 4.52588 26.3786 5.574 26.3786 6.79688C26.3786 8.01975 25.3742 9.06787 24.0639 9.06787C22.7973 9.06787 21.7929 8.01975 21.7929 6.79688C21.7929 5.574 22.7973 4.52588 24.0639 4.52588ZM5.28454 4.52588C6.55116 4.52588 7.55554 5.574 7.55554 6.79688C7.55554 8.01975 6.55116 9.06787 5.28454 9.06787C4.01791 9.06787 3.01354 8.01975 3.01354 6.79688C3.01354 5.574 4.01791 4.52588 5.28454 4.52588Z" fill="#9D0053"/>
</g>
</svg>
