<svg width="32" height="32" viewBox="0 0 32 32" fill="none" xmlns="http://www.w3.org/2000/svg">
<mask id="mask0_1_23291" style="mask-type:luminance" maskUnits="userSpaceOnUse" x="0" y="11" width="32" height="10">
<path d="M0.255859 11.125H31.744V20.875H0.255859V11.125Z" fill="white"/>
</mask>
<g mask="url(#mask0_1_23291)">
<path fill-rule="evenodd" clip-rule="evenodd" d="M26.8091 19.2317C26.3724 20.1489 25.4117 20.8476 24.3199 20.8476C23.1844 20.8476 22.2237 20.1489 21.8306 19.2317H7.98627C7.5932 20.1489 6.63252 20.8476 5.49702 20.8476C4.40521 20.8476 3.40083 20.1489 3.00777 19.1879L2.04708 19.2316C1.39208 18.8386 0.867895 18.271 0.387395 17.6594C0.0380328 16.4365 0.431096 14.7334 1.39177 12.8991C6.45796 12.7243 12.7468 10.0605 20.3461 11.6763L23.9709 13.7725C26.2419 13.5976 33.579 15.8686 31.3078 19.2315H26.8095L26.8091 19.2317ZM2.43977 13.7727C2.83284 13.7727 3.13852 14.0784 3.13852 14.4714C3.13852 14.8645 2.83286 15.1702 2.43977 15.1702C2.04668 15.1702 1.74102 14.8645 1.74102 14.4714C1.74102 14.0784 2.04668 13.7727 2.43977 13.7727ZM20.2585 12.2878C18.7736 11.8947 17.0703 11.7202 15.4109 11.7202L14.4502 13.5981C16.4155 13.9475 21.2196 14.5588 23.1408 13.9912L20.2585 12.2881V12.2878ZM14.9304 11.7202L13.9697 13.5544C11.8735 13.1614 9.68971 12.9431 8.77271 12.9431C8.5979 12.9431 8.42334 12.8557 8.5979 12.6812C10.3447 12.157 12.6157 11.8076 14.9304 11.7205L14.9304 11.7202ZM24.3198 15.6509C25.6301 15.6509 26.6345 16.699 26.6345 17.9219C26.6345 19.1448 25.6301 20.1929 24.3198 20.1929C23.0531 20.1929 22.0488 19.1448 22.0488 17.9219C22.0488 16.699 23.0531 15.6509 24.3198 15.6509ZM5.5404 15.6509C6.80702 15.6509 7.8114 16.699 7.8114 17.9219C7.8114 19.1448 6.80702 20.1929 5.5404 20.1929C4.27377 20.1929 3.2694 19.1448 3.2694 17.9219C3.2694 16.699 4.27377 15.6509 5.5404 15.6509Z" fill="black"/>
</g>
</svg>
